<svg width="45" height="45" viewBox="0 0 45 45" fill="none" xmlns="http://www.w3.org/2000/svg">
<g id="apple-logo_svgrepo.com">
<path id="Vector" d="M35.0816 36.5625C33.5254 38.8875 31.8754 41.1562 29.3629 41.1938C26.8504 41.25 26.0441 39.7125 23.1941 39.7125C20.3254 39.7125 19.4441 41.1563 17.0628 41.25C14.6066 41.3438 12.7503 38.775 11.1753 36.5063C7.96908 31.875 5.51283 23.3438 8.81282 17.6063C10.4441 14.7563 13.3691 12.9563 16.5378 12.9C18.9379 12.8625 21.2254 14.5313 22.7066 14.5313C24.1691 14.5313 26.9441 12.525 29.8504 12.825C31.0691 12.8813 34.4816 13.3125 36.6754 16.5375C36.5066 16.65 32.6066 18.9375 32.6441 23.6813C32.7004 29.3438 37.6129 31.2375 37.6691 31.2563C37.6129 31.3875 36.8816 33.9563 35.0816 36.5625ZM24.3754 6.5625C25.7441 5.00625 28.0129 3.825 29.8879 3.75C30.1316 5.94375 29.2504 8.15625 27.9379 9.73125C26.6441 11.325 24.5066 12.5625 22.4066 12.3938C22.1254 10.2375 23.1754 7.9875 24.3754 6.5625Z" fill="white"/>
</g>
</svg>
