<svg width="45" height="45" viewBox="0 0 45 45" fill="none" xmlns="http://www.w3.org/2000/svg">
<g id="apple-logo_svgrepo.com">
<path id="Vector" d="M35.0811 36.5625C33.5249 38.8875 31.8749 41.1562 29.3624 41.1938C26.8499 41.25 26.0436 39.7125 23.1936 39.7125C20.3249 39.7125 19.4436 41.1563 17.0623 41.25C14.6061 41.3438 12.7498 38.775 11.1748 36.5063C7.96859 31.875 5.51234 23.3438 8.81234 17.6063C10.4436 14.7563 13.3686 12.9563 16.5373 12.9C18.9374 12.8625 21.2249 14.5313 22.7061 14.5313C24.1686 14.5313 26.9436 12.525 29.8499 12.825C31.0686 12.8813 34.4811 13.3125 36.6749 16.5375C36.5061 16.65 32.6061 18.9375 32.6436 23.6813C32.6999 29.3438 37.6124 31.2375 37.6686 31.2563C37.6124 31.3875 36.8811 33.9563 35.0811 36.5625ZM24.3749 6.5625C25.7436 5.00625 28.0124 3.825 29.8874 3.75C30.1311 5.94375 29.2499 8.15625 27.9374 9.73125C26.6436 11.325 24.5061 12.5625 22.4061 12.3938C22.1249 10.2375 23.1749 7.9875 24.3749 6.5625Z" fill="white"/>
</g>
</svg>
