<svg width="416" height="316" viewBox="0 0 416 316" fill="none" xmlns="http://www.w3.org/2000/svg">
<path d="M71.9512 268.923C69.7915 267.644 67.8505 267.546 66.3431 268.414L60.4215 271.887C61.8211 271.019 63.7621 271.117 66.0296 272.396C70.3487 274.847 73.8142 280.853 73.8266 285.8C73.8328 288.274 72.9745 289.999 71.575 290.867L77.4966 287.395C78.8961 286.527 79.7544 284.802 79.7482 282.328C79.7357 277.381 76.2703 271.375 71.9512 268.923Z" fill="#414042"/>
<path d="M21.0156 239.671C18.856 238.392 16.9149 238.294 15.4076 239.162L9.48599 242.635C10.8855 241.767 12.8266 241.865 15.0941 243.144C19.4132 245.595 22.8786 251.601 22.891 256.548C22.8972 259.022 22.039 260.748 20.6394 261.615L26.561 258.143C27.9605 257.275 28.8188 255.55 28.8126 253.076C28.8002 248.129 25.3347 242.123 21.0156 239.671Z" fill="#414042"/>
<path d="M103.989 239.67C103.989 239.67 93.07 226.729 82.5993 220.444C82.5993 220.444 68.5602 209.559 47.1133 210.314C41.1858 210.559 35.3694 212.092 29.987 214.805L6.62806 226.74C6.62806 226.74 0.706541 229.349 0.727835 237.835L0.741042 243.098C0.747242 245.569 1.83071 247.819 3.77455 249.313C5.07035 250.273 6.69007 251.446 8.52559 252.726L71.8813 287.42L73.605 287.089L79.1088 289.854C82.3463 291.449 86.0125 292.075 89.5679 291.519C94.0929 290.744 100.557 289.422 106.586 286.813C113.907 283.661 119.07 279.23 121.863 275.457C123.474 273.3 124.437 270.61 124.43 267.924L124.423 265.131C124.419 263.413 123.984 261.696 123.01 260.197C123.01 260.197 122.891 255.579 118.136 250.662C113.381 245.745 103.989 239.67 103.989 239.67Z" fill="#FFC93F"/>
<path d="M19.7822 227.13C18.921 227.564 18.4926 228.641 18.9261 229.606C19.4675 230.57 20.5489 231.961 23.0319 233.56L57.3585 253.798C58.114 254.224 58.9747 253.575 58.7569 252.717C58.1032 249.927 56.1499 244.672 50.5298 238.577C42.748 230.129 27.1021 223.332 19.7822 227.13Z" fill="#414042"/>
<path d="M54.7084 237.666C54.3853 237.775 54.2783 238.098 54.4945 238.312L66.0693 254.695C68.341 257.907 72.1179 259.608 75.9967 258.943C84.1858 257.719 97.9727 253.565 104.082 239.563C104.082 239.563 93.1623 226.616 82.6907 220.329C82.5832 220.437 73.3448 233.057 54.7084 237.666Z" fill="#414042"/>
<path d="M119.747 252.818L119.532 252.819C119.532 252.819 119.21 253.357 118.781 254.111C117.922 255.618 117.495 257.23 117.607 258.946C117.609 259.59 117.718 260.234 117.72 260.771C117.721 261.415 117.508 262.167 116.97 262.599C114.712 264.757 107.506 270.804 96.737 273.972C95.9832 274.191 95.2282 273.98 94.5805 273.554C94.3645 273.34 94.0406 273.127 93.7168 272.914C92.2053 271.848 90.4796 271.321 88.6475 271.33C86.061 271.343 81.8576 271.257 78.1926 270.954C78.1926 270.954 77.0068 270.853 75.4975 270.646C74.7428 270.542 74.3141 271.51 74.9618 271.936L79.6041 275.133C83.1668 277.583 87.6956 278.526 92.0043 277.645C97.9287 276.435 106.544 273.922 113.213 268.843C117.731 265.386 120.848 262.15 122.997 259.456C122.562 257.955 121.802 255.598 119.747 252.818Z" fill="#F1F2F2"/>
<path d="M96.8707 283.483L99.2353 280.894C99.3429 280.786 99.4507 280.785 99.5584 280.784C100.959 280.563 111.516 278.576 119.362 269.837C119.47 269.729 119.685 269.621 119.9 269.513L121.193 269.291C121.516 269.289 121.841 269.61 121.626 269.933C120.768 271.763 118.086 276.609 111.736 280.078C104.74 283.872 100.106 284.325 97.1962 284.34C96.7648 284.235 96.656 283.806 96.8707 283.483Z" fill="#414042"/>
<path d="M2.47339 238.528C2.47339 238.528 3.22076 235.294 2.78418 233.358C2.67463 232.712 2.34952 232.176 2.02439 231.639C1.27268 233.15 0.845824 235.091 0.743573 237.353L2.47339 238.528Z" fill="#FFC200"/>
<path d="M15.1018 243.151C19.4204 245.59 22.8866 251.58 22.9005 256.52C22.9144 261.46 19.3631 263.526 15.0445 261.087C10.7259 258.647 7.25968 252.658 7.24576 247.718C7.23185 242.778 10.6754 240.713 15.1018 243.151Z" fill="#414042"/>
<path d="M15.0879 245.193C18.4348 247.102 21.2505 251.807 21.1536 255.674C21.1645 259.541 18.3663 261.064 15.0195 259.155C11.6727 257.246 8.85688 252.54 8.95378 248.673C8.94289 244.807 11.6333 243.284 15.0879 245.193Z" fill="#D3D3D3"/>
<path d="M15.0088 248.307C16.8441 249.368 18.3603 251.935 18.3664 254.083C18.3724 256.232 16.8659 257.102 15.0306 256.041C13.1953 254.98 11.6791 252.412 11.673 250.264C11.667 248.116 13.1735 247.246 15.0088 248.307Z" fill="#414042"/>
<path d="M65.9387 272.402C70.2573 274.841 73.7236 280.83 73.7375 285.771C73.7514 290.711 70.2 292.777 65.8815 290.337C61.5629 287.898 58.0966 281.909 58.0827 276.969C58.1763 271.92 61.6202 269.963 65.9387 272.402Z" fill="#414042"/>
<path d="M65.9341 274.336C69.2809 276.245 72.0967 280.951 71.9998 284.818C72.0107 288.684 69.2124 290.208 65.8656 288.299C62.5188 286.389 59.703 281.684 59.7999 277.817C59.8971 274.057 62.5872 272.427 65.9341 274.336Z" fill="#D3D3D3"/>
<path d="M65.9494 277.45C67.7847 278.511 69.3009 281.078 69.307 283.226C69.313 285.375 67.8065 286.245 65.9712 285.184C64.1359 284.123 62.6197 281.556 62.6136 279.407C62.6079 277.366 64.1144 276.496 65.9494 277.45Z" fill="#414042"/>
<path d="M67.4184 232.733L67.4781 256.535C68.8865 257.82 70.7264 258.78 72.6729 259.093L72.5988 229.583C71.0883 230.668 69.3613 231.646 67.4184 232.733Z" fill="#4C4C4C"/>
<path d="M82.5784 220.412C82.5784 220.412 80.8578 222.789 77.3043 225.822L77.387 258.761C82.0253 257.984 87.956 256.231 93.3424 252.544L93.2824 228.646C90.0378 225.757 86.2531 222.654 82.5784 220.412Z" fill="#4C4C4C"/>
<path d="M296.768 235.554C299.25 236.937 299.256 239.192 296.781 240.708C294.305 242.117 290.425 242.137 287.943 240.754C285.461 239.37 285.455 237.115 287.93 235.599C290.405 234.19 294.393 234.17 296.768 235.554Z" fill="#209874"/>
<path d="M292.495 244.36C289.694 244.38 287.106 243.756 285.055 242.7C283.005 241.538 281.922 239.94 281.918 238.335C281.913 236.623 282.987 235.117 285.031 233.925C286.967 232.734 289.659 232.073 292.461 232.053C295.263 232.033 297.851 232.657 299.901 233.82C301.952 234.982 303.034 236.58 303.039 238.185C303.043 239.897 301.97 241.403 299.926 242.595C297.882 243.679 295.297 244.34 292.495 244.36ZM292.354 232.482C289.66 232.501 287.184 233.161 285.247 234.245C283.418 235.328 282.452 236.726 282.456 238.224C282.461 239.722 283.542 241.106 285.377 242.163C287.32 243.219 289.8 243.844 292.494 243.825C295.188 243.806 297.665 243.146 299.601 242.062C301.43 240.979 302.396 239.581 302.392 238.083C302.388 236.584 301.306 235.201 299.471 234.144C297.636 233.087 295.048 232.463 292.354 232.482Z" fill="#209874"/>
<path d="M145.999 184.768C148.045 183.575 149.877 183.458 151.281 184.203L156.896 187.401C155.492 186.656 153.659 186.772 151.614 187.966C147.522 190.353 144.194 196.071 144.206 200.803C144.212 203.169 145.079 204.778 146.374 205.525L140.76 202.327C139.464 201.58 138.597 199.971 138.591 197.605C138.579 192.873 141.908 187.155 145.999 184.768Z" fill="#414042"/>
<path d="M202.027 151.301C204.073 150.108 205.906 149.991 207.309 150.736L212.924 153.934C211.52 153.189 209.688 153.306 207.642 154.499C203.551 156.886 200.223 162.604 200.235 167.336C200.241 169.703 201.107 171.312 202.403 172.058L196.788 168.86C195.492 168.114 194.626 166.505 194.62 164.138C194.608 159.514 197.936 153.689 202.027 151.301Z" fill="#414042"/>
<path d="M119.491 154.753C119.491 154.753 134.114 140.495 139.386 136.707C139.386 136.707 159.616 122.85 175.549 115.14C178.779 113.619 182.443 113.385 185.788 114.658C191.29 116.671 199.922 120.065 205.967 123.795C210.825 126.779 213.957 129.342 215.902 131.051C217.631 132.654 218.606 134.798 218.719 137.054L219.175 146.614C219.4 150.482 218.008 154.357 215.105 157.058C214.89 157.274 214.567 157.598 214.244 157.814L199.828 168.741L156.673 195.716L144.291 201.367C144.291 201.367 141.601 203.1 137.292 203.981C134.167 204.642 130.933 204.336 127.805 203.385C121.656 201.482 109.141 196.711 100.495 187.837C99.0905 186.447 98.0085 184.841 97.2494 183.018C97.0328 182.59 96.9237 182.053 96.8145 181.516C96.4874 180.014 96.5914 178.509 97.1269 177.109C98.6262 173.233 103.346 164.291 119.491 154.753Z" fill="#FFC93F"/>
<path d="M166.383 154.152C166.383 154.152 146.095 145.228 138.96 136.989C133.365 141.102 119.494 154.715 119.494 154.715C119.494 154.715 119.828 159.012 125.662 164.033C130.955 168.628 142.072 174.16 151.345 175.187C152.962 175.394 154.469 174.634 155.328 173.232C157.798 169.565 163.707 161.689 166.383 154.152Z" fill="#414042"/>
<path d="M163.167 172.732C162.414 173.166 161.55 172.418 161.763 171.558C163.046 167.253 166.364 157.996 171.739 152.273C178.834 144.608 195.95 135.818 201.015 135.469C205.326 135.125 210.828 136.924 212.446 137.453C212.662 137.559 212.662 137.774 212.555 137.882C209.436 140.584 186.739 159.396 163.167 172.732Z" fill="#414042"/>
<path d="M135.563 191.726C132.112 190.884 128.23 189.83 126.396 189.302C125.749 189.091 125.103 189.309 124.565 189.741L123.489 190.606C122.844 191.146 121.874 191.366 121.012 191.156C113.029 188.619 107.738 184.564 105.577 182.641C104.929 182.108 104.604 181.142 104.709 180.283L104.921 178.563C105.027 177.918 104.81 177.274 104.27 176.848C102.216 174.71 100.917 172.353 100.375 171.174C99.3012 172.684 98.5499 173.977 98.014 175.161C99.3198 180.095 103.102 183.836 103.102 183.836C107.964 188.644 119.509 193.634 119.509 193.634C119.509 193.634 123.718 195.976 129.43 195.732C132.448 195.609 134.493 194.632 135.676 193.766C136.645 193.117 136.426 191.936 135.563 191.726Z" fill="white"/>
<path d="M215.864 131.147C213.919 129.331 210.788 126.878 205.93 123.896C199.777 120.061 191.147 116.669 185.753 114.764C184.998 114.446 184.135 114.235 183.38 114.132L183.381 114.239C183.381 114.239 200.215 122.636 208.32 131.508C208.32 131.508 212.632 131.808 218.027 134.035C217.377 132.965 216.728 131.894 215.864 131.147Z" fill="#414042"/>
<path d="M218.905 142.599L218.676 137.22C218.674 136.466 218.456 135.606 218.238 134.854C217.485 135.396 215.978 136.48 214.257 138.211C213.611 138.86 213.722 139.828 214.37 140.362C215.342 141.111 216.962 142.071 218.905 142.599Z" fill="#FFC200"/>
<path d="M151.616 188.096C147.527 190.488 144.201 196.204 144.215 200.929C144.228 205.655 147.575 207.456 151.664 205.064C155.754 202.672 159.079 196.957 159.066 192.231C159.053 187.506 155.706 185.704 151.616 188.096Z" fill="#414042"/>
<path d="M151.618 189.92C148.389 191.769 145.815 196.298 145.933 199.949C145.944 203.6 148.535 205.085 151.763 203.236C154.992 201.387 157.566 196.858 157.448 193.207C157.438 189.556 154.847 188.071 151.618 189.92Z" fill="#7DAEEA"/>
<path d="M151.63 192.932C149.909 193.911 148.515 196.392 148.521 198.433C148.526 200.474 149.929 201.216 151.759 200.236C153.48 199.257 154.874 196.776 154.869 194.735C154.863 192.694 153.46 191.845 151.63 192.932Z" fill="#414042"/>
<path d="M212.913 166.149C215.798 161.138 215.799 155.735 212.914 154.082C210.029 152.429 205.351 155.15 202.465 160.161C199.58 165.172 199.579 170.575 202.464 172.228C205.349 173.882 210.027 171.16 212.913 166.149Z" fill="#414042"/>
<path d="M207.646 156.455C204.418 158.304 201.844 162.833 201.962 166.484C201.972 170.135 204.563 171.62 207.792 169.771C211.02 167.922 213.595 163.393 213.477 159.743C213.466 156.091 210.875 154.606 207.646 156.455Z" fill="#7DAEEA"/>
<path d="M209.882 164.417C211.131 162.248 211.141 159.914 209.905 159.206C208.668 158.497 206.653 159.682 205.404 161.852C204.155 164.021 204.145 166.355 205.381 167.063C206.618 167.772 208.633 166.587 209.882 164.417Z" fill="#414042"/>
<path d="M138.957 136.964C133.363 141.073 119.494 154.675 119.494 154.675C119.494 154.675 119.604 155.641 120.362 157.248L153.318 147.415C147.813 144.329 142.092 140.599 138.957 136.964Z" fill="#4C4C4C"/>
<path d="M125.233 163.693L162.813 152.578C161.734 152.048 160.439 151.411 159.036 150.669L122.856 161.242C123.504 161.988 124.261 162.841 125.233 163.693Z" fill="#4C4C4C"/>
<path d="M218.673 137.222L218.672 137.114C218.349 137.331 217.919 137.764 217.488 138.089C217.165 138.306 217.274 138.843 217.598 139.057C217.922 139.271 218.355 139.484 218.787 139.804L218.673 137.222Z" fill="#FF9100"/>
<path d="M211.188 222.268C213.233 221.075 215.066 220.958 216.47 221.703L222.085 224.901C220.681 224.156 218.848 224.272 216.803 225.466C212.711 227.853 209.383 233.571 209.395 238.303C209.401 240.669 210.268 242.278 211.563 243.025L205.949 239.827C204.653 239.08 203.786 237.471 203.78 235.105C203.768 230.373 207.097 224.655 211.188 222.268Z" fill="#414042"/>
<path d="M267.216 188.801C269.262 187.608 271.095 187.491 272.498 188.236L278.113 191.434C276.709 190.689 274.877 190.806 272.831 191.999C268.74 194.386 265.412 200.104 265.423 204.836C265.429 207.203 266.296 208.812 267.592 209.558L261.977 206.36C260.681 205.614 259.815 204.005 259.809 201.638C259.797 196.906 263.125 191.189 267.216 188.801Z" fill="#414042"/>
<path d="M184.68 192.253C184.68 192.253 199.303 177.995 204.575 174.207C204.575 174.207 224.805 160.35 240.738 152.64C243.968 151.119 247.632 150.885 250.977 152.158C256.479 154.171 265.11 157.565 271.156 161.295C276.014 164.279 279.146 166.842 281.091 168.551C282.819 170.154 283.795 172.298 283.908 174.554L284.363 184.114C284.589 187.982 283.197 191.857 280.294 194.558C280.079 194.774 279.756 195.098 279.433 195.314L265.017 206.241L221.862 233.216L209.48 238.867C209.48 238.867 206.79 240.6 202.48 241.481C199.356 242.142 196.122 241.836 192.994 240.885C186.845 238.982 174.329 234.211 165.684 225.337C164.279 223.947 163.197 222.341 162.438 220.518C162.222 220.09 162.113 219.553 162.003 219.016C161.676 217.514 161.78 216.009 162.316 214.609C163.815 210.733 168.535 201.791 184.68 192.253Z" fill="#FFC93F"/>
<path d="M231.572 191.652C231.572 191.652 211.284 182.728 204.149 174.489C198.554 178.602 184.683 192.215 184.683 192.215C184.683 192.215 185.017 196.512 190.85 201.533C196.144 206.128 207.261 211.66 216.534 212.687C218.151 212.894 219.658 212.134 220.517 210.732C222.987 207.065 228.896 199.189 231.572 191.652Z" fill="#414042"/>
<path d="M228.356 210.232C227.603 210.666 226.739 209.918 226.952 209.058C228.235 204.753 231.553 195.496 236.928 189.773C244.023 182.108 261.139 173.318 266.204 172.969C270.515 172.625 276.016 174.424 277.635 174.953C277.85 175.059 277.851 175.274 277.743 175.382C274.624 178.084 251.928 196.896 228.356 210.232Z" fill="#414042"/>
<path d="M200.655 229.225C197.204 228.383 193.322 227.329 191.488 226.801C190.841 226.59 190.195 226.808 189.657 227.24L188.581 228.105C187.936 228.645 186.966 228.865 186.103 228.655C178.121 226.117 172.83 222.063 170.669 220.14C170.021 219.606 169.696 218.641 169.801 217.782L170.012 216.062C170.119 215.417 169.901 214.773 169.361 214.347C167.308 212.209 166.009 209.852 165.467 208.673C164.393 210.183 163.642 211.476 163.106 212.66C164.412 217.594 168.193 221.334 168.193 221.334C173.056 226.143 184.601 231.133 184.601 231.133C184.601 231.133 188.81 233.474 194.522 233.23C197.539 233.108 199.585 232.13 200.768 231.265C201.844 230.615 201.626 229.435 200.655 229.225Z" fill="white"/>
<path d="M281.053 168.647C279.108 166.831 275.976 164.378 271.119 161.396C264.966 157.561 256.335 154.169 250.942 152.264C250.187 151.946 249.324 151.735 248.569 151.632L248.569 151.739C248.569 151.739 265.404 160.136 273.509 169.008C273.509 169.008 277.821 169.308 283.215 171.535C282.566 170.357 281.917 169.394 281.053 168.647Z" fill="#414042"/>
<path d="M284.094 180.1L283.864 174.72C283.863 173.967 283.645 173.107 283.427 172.355C282.674 172.897 281.167 173.981 279.446 175.712C278.8 176.361 278.91 177.329 279.559 177.863C280.531 178.612 282.151 179.464 284.094 180.1Z" fill="#FFC200"/>
<path d="M216.798 225.491C212.709 227.883 209.383 233.598 209.397 238.323C209.41 243.049 212.756 244.85 216.846 242.458C220.935 240.066 224.261 234.351 224.247 229.626C224.234 225.008 220.888 223.206 216.798 225.491Z" fill="#414042"/>
<path d="M216.812 227.423C213.584 229.272 211.01 233.801 211.128 237.452C211.138 241.104 213.729 242.589 216.958 240.74C220.186 238.891 222.76 234.361 222.642 230.711C222.632 227.059 220.041 225.574 216.812 227.423Z" fill="#7DAEEA"/>
<path d="M216.813 230.431C215.091 231.41 213.697 233.891 213.703 235.932C213.709 237.973 215.112 238.715 216.941 237.735C218.663 236.756 220.057 234.275 220.051 232.234C220.045 230.193 218.642 229.344 216.813 230.431Z" fill="#414042"/>
<path d="M272.827 192.131C268.738 194.523 265.412 200.238 265.426 204.963C265.439 209.689 268.786 211.49 272.875 209.098C276.965 206.706 280.29 200.991 280.277 196.266C280.264 191.648 276.917 189.739 272.827 192.131Z" fill="#414042"/>
<path d="M272.813 193.955C269.584 195.804 267.01 200.333 267.128 203.984C267.138 207.636 269.729 209.121 272.958 207.272C276.186 205.423 278.76 200.894 278.642 197.243C278.632 193.591 276.041 192.106 272.813 193.955Z" fill="#7DAEEA"/>
<path d="M272.835 196.963C271.113 197.942 269.719 200.423 269.725 202.464C269.731 204.505 271.134 205.247 272.963 204.267C274.685 203.288 276.079 200.807 276.073 198.766C276.067 196.725 274.556 195.984 272.835 196.963Z" fill="#414042"/>
<path d="M204.146 174.464C198.552 178.573 184.683 192.175 184.683 192.175C184.683 192.175 184.793 193.141 185.551 194.748L218.507 184.915C213.002 181.829 207.281 178.099 204.146 174.464Z" fill="#4C4C4C"/>
<path d="M190.424 201.086L228.003 189.97C226.924 189.44 225.63 188.804 224.227 188.061L188.047 198.634C188.695 199.488 189.452 200.234 190.424 201.086Z" fill="#4C4C4C"/>
<path d="M283.861 174.722L283.861 174.614C283.538 174.831 283.107 175.264 282.677 175.589C282.353 175.806 282.463 176.343 282.787 176.557C283.111 176.771 283.543 176.984 283.976 177.304L283.861 174.722Z" fill="#FF9100"/>
<path d="M342.095 292.851C344.141 291.658 345.974 291.541 347.377 292.286L352.992 295.484C351.588 294.739 349.756 294.855 347.71 296.049C343.619 298.436 340.291 304.154 340.303 308.886C340.309 311.252 341.175 312.861 342.471 313.608L336.856 310.41C335.56 309.663 334.694 308.055 334.688 305.688C334.676 300.956 338.004 295.238 342.095 292.851Z" fill="#414042"/>
<path d="M398.123 259.384C400.168 258.191 402.001 258.074 403.405 258.819L409.02 262.017C407.616 261.272 405.783 261.389 403.738 262.582C399.646 264.969 396.318 270.687 396.33 275.419C396.336 277.786 397.203 279.395 398.498 280.141L392.884 276.943C391.588 276.197 390.721 274.588 390.715 272.221C390.703 267.489 394.031 261.772 398.123 259.384Z" fill="#414042"/>
<path d="M315.587 262.836C315.587 262.836 330.211 248.578 335.483 244.79C335.483 244.79 355.712 230.933 371.646 223.223C374.875 221.702 378.54 221.468 381.884 222.741C387.387 224.754 396.018 228.148 402.064 231.878C406.922 234.862 410.054 237.425 411.998 239.134C413.727 240.737 414.703 242.881 414.816 245.137L415.271 254.697C415.496 258.565 414.105 262.44 411.201 265.141C410.986 265.357 410.664 265.681 410.341 265.897L395.925 276.824L352.769 303.799L340.388 309.45C340.388 309.45 337.697 311.183 333.388 312.064C330.264 312.725 327.03 312.419 323.901 311.468C317.753 309.565 305.237 304.794 296.592 295.92C295.187 294.53 294.105 292.924 293.346 291.101C293.129 290.673 293.02 290.136 292.911 289.599C292.584 288.097 292.688 286.592 293.223 285.192C294.722 281.209 299.551 272.373 315.587 262.836Z" fill="#FFC93F"/>
<path d="M362.476 262.13C362.476 262.13 342.188 253.206 335.053 244.967C329.458 249.079 315.587 262.692 315.587 262.692C315.587 262.692 315.921 266.989 321.754 272.011C327.048 276.605 338.165 282.137 347.438 283.165C349.055 283.371 350.562 282.611 351.421 281.21C353.891 277.65 359.8 269.667 362.476 262.13Z" fill="#414042"/>
<path d="M359.372 280.814C358.618 281.248 357.754 280.5 357.967 279.64C359.25 275.335 362.568 266.078 367.943 260.355C375.038 252.69 392.154 243.9 397.219 243.551C401.53 243.207 407.032 245.006 408.65 245.535C408.866 245.641 408.866 245.856 408.759 245.964C405.532 248.666 382.836 267.478 359.372 280.814Z" fill="#414042"/>
<path d="M331.655 299.698C328.203 298.857 324.321 297.802 322.487 297.275C321.84 297.063 321.194 297.281 320.656 297.714L319.58 298.579C318.935 299.119 317.965 299.339 317.103 299.128C309.12 296.591 303.829 292.536 301.669 290.614C301.021 290.08 300.695 289.115 300.8 288.255L301.012 286.536C301.118 285.89 300.901 285.247 300.361 284.82C298.307 282.682 297.008 280.326 296.466 279.147C295.392 280.656 294.641 281.949 294.105 283.134C295.411 288.068 299.193 291.808 299.193 291.808C304.055 296.617 315.6 301.607 315.6 301.607C315.6 301.607 319.809 303.948 325.521 303.704C328.539 303.581 330.584 302.604 331.767 301.739C332.844 301.196 332.518 300.016 331.655 299.698Z" fill="white"/>
<path d="M411.955 239.122C410.01 237.306 406.879 234.852 402.021 231.87C395.868 228.036 387.238 224.644 381.844 222.739C381.089 222.42 380.226 222.21 379.471 222.106L379.472 222.214C379.472 222.214 396.306 230.611 404.411 239.482C404.411 239.482 408.723 239.782 414.118 242.01C413.576 240.939 412.819 239.976 411.955 239.122Z" fill="#414042"/>
<path d="M415.003 250.575L414.774 245.196C414.772 244.443 414.554 243.583 414.337 242.831C413.583 243.373 412.076 244.457 410.355 246.187C409.709 246.836 409.82 247.804 410.468 248.339C411.548 249.087 413.168 250.047 415.003 250.575Z" fill="#FFC200"/>
<path d="M347.819 296.074C343.73 298.466 340.404 304.182 340.418 308.907C340.431 313.632 343.778 315.434 347.867 313.042C351.956 310.65 355.282 304.934 355.269 300.209C355.148 295.592 351.909 293.682 347.819 296.074Z" fill="#414042"/>
<path d="M347.824 298.006C344.596 299.855 342.021 304.384 342.139 308.035C342.15 311.687 344.741 313.172 347.969 311.323C351.198 309.474 353.772 304.944 353.654 301.294C353.535 297.535 350.945 296.158 347.824 298.006Z" fill="#7DAEEA"/>
<path d="M347.835 300.903C346.113 301.883 344.719 304.363 344.725 306.404C344.731 308.445 346.134 309.187 347.963 308.207C349.685 307.228 351.079 304.747 351.073 302.706C351.067 300.665 349.557 299.924 347.835 300.903Z" fill="#414042"/>
<path d="M403.737 262.712C399.648 265.104 396.322 270.819 396.335 275.545C396.349 280.27 399.695 282.071 403.785 279.68C407.874 277.288 411.2 271.572 411.186 266.847C411.173 262.121 407.826 260.32 403.737 262.712Z" fill="#414042"/>
<path d="M403.73 264.54C400.501 266.389 397.927 270.918 398.045 274.569C398.056 278.221 400.647 279.706 403.875 277.857C407.103 276.008 409.678 271.479 409.559 267.828C409.549 264.176 406.958 262.691 403.73 264.54Z" fill="#7DAEEA"/>
<path d="M403.851 267.544C402.129 268.524 400.735 271.004 400.741 273.045C400.747 275.086 402.15 275.828 403.979 274.848C405.701 273.869 407.095 271.388 407.089 269.347C406.975 267.307 405.572 266.458 403.851 267.544Z" fill="#414042"/>
<path d="M335.054 245.048C329.459 249.157 315.59 262.759 315.59 262.759C315.59 262.759 315.7 263.725 316.459 265.332L349.414 255.499C343.91 252.413 338.188 248.683 335.054 245.048Z" fill="#4C4C4C"/>
<path d="M321.33 271.669L358.91 260.553C357.831 260.023 356.536 259.387 355.134 258.644L318.953 269.217C319.602 269.964 320.358 270.817 321.33 271.669Z" fill="#4C4C4C"/>
<path d="M414.769 245.306L414.769 245.198C414.446 245.415 414.015 245.848 413.584 246.173C413.261 246.39 413.37 246.927 413.695 247.141C414.019 247.355 414.451 247.568 414.883 247.888L414.769 245.306Z" fill="#FF9100"/>
<path d="M235.924 39.4934C234.834 38.8511 232.985 38.8581 231.898 39.5086C231.355 39.8338 231.03 40.266 231.031 40.6969L230.994 150.475C230.995 150.906 231.322 151.335 231.867 151.657C232.957 152.299 234.807 152.292 235.893 151.641C236.436 151.316 236.761 150.884 236.76 150.453L236.798 40.6752C236.798 40.6752 236.798 40.6752 236.798 40.7829C236.797 40.2442 236.469 39.8146 235.924 39.4934ZM235.93 41.7557C236.039 41.7553 236.039 41.6476 236.147 41.6472C236.039 41.7553 236.039 41.7553 235.93 41.7557ZM236.147 41.6472L236.256 41.5391C236.256 41.5391 236.256 41.5391 236.147 41.6472Z" fill="#1D4FE6"/>
<path d="M252.189 26.3116L252.242 71.5911L212.646 49.2462L212.594 3.96668L252.189 26.3116Z" fill="url(#paint0_linear_1624_247)"/>
<path d="M252.212 26.4257L255.752 24.3441L255.69 69.7862L252.258 71.8667L252.212 26.4257Z" fill="url(#paint1_linear_1624_247)"/>
<path d="M212.594 3.95362L216.142 1.89544L255.753 24.0757L252.205 26.1339L212.594 3.95362Z" fill="url(#paint2_linear_1624_247)"/>
<path d="M239.501 30.968C237.985 28.7121 235.715 26.6745 232.476 24.856C229.344 23.037 227.076 21.9687 225.457 21.3287L225.418 47.3922L230.602 50.388L230.577 40.9105C231.009 41.2319 231.657 41.6603 232.305 42.0886C235.437 43.7998 238.027 44.5438 239.857 43.5675C241.257 42.8083 242.007 41.0822 242.001 38.4974C241.994 35.9127 241.016 33.1162 239.501 30.968ZM232.293 37.4575C231.537 37.0296 230.997 36.7086 230.565 36.2794L230.544 28.4174C230.868 28.5239 231.623 28.8441 232.703 29.3785C235.295 30.8764 236.811 33.1323 236.817 35.6094C236.824 38.4095 235.101 39.0623 232.293 37.4575Z" fill="#41FEFF"/>
<path d="M250.286 68.3577L214.534 47.9858L214.539 7.09222L250.291 27.4641L250.286 68.3577ZM215.18 47.6596L249.636 67.2848L249.645 27.8979L215.189 8.27266L215.18 47.6596Z" fill="#41FEFF"/>
<path d="M147.128 303.788C147.02 303.789 146.912 303.789 146.804 303.682L145.076 302.401C144.86 302.187 144.751 301.865 144.966 301.649C145.181 301.433 145.505 301.324 145.721 301.538L147.449 302.819C147.665 303.033 147.774 303.355 147.558 303.571C147.451 303.679 147.236 303.788 147.128 303.788Z" fill="#209874"/>
<path d="M166.299 310.916C165.976 310.918 165.76 310.704 165.759 310.382C165.758 310.06 165.973 309.845 166.297 309.843C167.698 309.836 168.99 309.615 170.391 309.286C170.714 309.177 170.93 309.39 171.038 309.712C171.147 310.033 170.932 310.249 170.609 310.358C169.209 310.687 167.808 310.908 166.299 310.916ZM162.096 310.83C160.587 310.623 159.185 310.416 157.783 309.994C157.46 309.888 157.351 309.567 157.458 309.352C157.565 309.029 157.888 308.92 158.104 309.026C159.398 309.449 160.8 309.656 162.094 309.864C162.417 309.863 162.633 310.184 162.526 310.506C162.635 310.613 162.42 310.829 162.096 310.83ZM174.486 309.157C174.27 309.159 174.054 309.052 173.946 308.838C173.837 308.517 173.945 308.302 174.268 308.193C175.56 307.65 176.744 307.107 177.927 306.35C178.143 306.241 178.466 306.24 178.682 306.561C178.791 306.775 178.791 307.097 178.469 307.313C177.285 308.07 175.993 308.721 174.593 309.157C174.593 309.157 174.593 309.157 174.486 309.157ZM154.115 308.403C154.007 308.403 154.007 308.403 153.899 308.297C152.604 307.659 151.417 306.914 150.23 306.169C150.014 305.955 149.905 305.634 150.12 305.418C150.335 305.203 150.658 305.094 150.874 305.307C151.954 306.053 153.141 306.798 154.436 307.435C154.652 307.541 154.76 307.863 154.653 308.185C154.438 308.294 154.223 308.402 154.115 308.403ZM181.912 305.149C181.696 305.15 181.588 305.043 181.48 304.937C181.372 304.723 181.371 304.401 181.694 304.184L185.353 302.019C185.568 301.911 185.891 301.909 186.108 302.23C186.216 302.444 186.217 302.766 185.894 302.982L182.235 305.147C182.127 305.148 182.02 305.148 181.912 305.149ZM189.122 300.82C188.906 300.821 188.798 300.714 188.69 300.607C188.582 300.393 188.581 300.071 188.904 299.855L192.562 297.69C192.778 297.582 193.101 297.58 193.317 297.901C193.426 298.115 193.426 298.437 193.104 298.653L189.445 300.818C189.337 300.819 189.229 300.819 189.122 300.82ZM196.331 296.491C196.116 296.492 196.008 296.385 195.9 296.278C195.791 296.064 195.791 295.742 196.113 295.526L199.772 293.361C199.988 293.253 200.311 293.251 200.527 293.572C200.635 293.786 200.636 294.108 200.314 294.324L196.655 296.489C196.547 296.489 196.439 296.49 196.331 296.491ZM203.541 292.161C203.326 292.162 203.218 292.056 203.11 291.949C203.001 291.735 203 291.413 203.323 291.197L206.982 289.032C207.197 288.923 207.521 288.922 207.737 289.242C207.845 289.457 207.846 289.778 207.523 289.995L203.865 292.16C203.757 292.16 203.649 292.161 203.541 292.161ZM210.751 287.832C210.535 287.833 210.427 287.726 210.319 287.62C210.211 287.406 210.21 287.084 210.533 286.867L214.192 284.702C214.407 284.594 214.73 284.592 214.947 284.913C215.055 285.127 215.056 285.449 214.733 285.666L211.074 287.83C210.967 287.831 210.859 287.831 210.751 287.832ZM217.961 283.503C217.745 283.504 217.637 283.397 217.529 283.29C217.421 283.076 217.42 282.754 217.743 282.538L221.402 280.373C221.617 280.265 221.94 280.263 222.157 280.584C222.265 280.798 222.266 281.12 221.943 281.336L218.284 283.501C218.176 283.502 218.069 283.502 217.961 283.503ZM225.171 279.174C224.955 279.175 224.847 279.068 224.739 278.961C224.631 278.747 224.63 278.425 224.953 278.209L228.611 276.044C228.827 275.936 229.15 275.934 229.366 276.255C229.475 276.469 229.475 276.791 229.153 277.007L225.494 279.172C225.386 279.172 225.278 279.173 225.171 279.174ZM232.38 274.844C232.165 274.845 232.057 274.739 231.949 274.632C231.84 274.418 231.84 274.096 232.162 273.88L235.821 271.715C236.036 271.606 236.36 271.605 236.576 271.925C236.684 272.14 236.685 272.461 236.362 272.678L232.704 274.843C232.596 274.843 232.488 274.844 232.38 274.844ZM239.59 270.515C239.375 270.516 239.267 270.409 239.159 270.303C239.05 270.089 239.049 269.767 239.372 269.55L243.031 267.385C243.246 267.277 243.57 267.275 243.786 267.596C243.894 267.81 243.895 268.132 243.572 268.349L239.914 270.513C239.805 270.407 239.698 270.515 239.59 270.515ZM246.8 266.186C246.584 266.187 246.476 266.08 246.368 265.973C246.26 265.759 246.259 265.437 246.582 265.221L250.241 263.056C250.456 262.948 250.779 262.946 250.996 263.267C251.104 263.481 251.105 263.803 250.782 264.019L247.123 266.184C247.015 266.077 246.908 266.185 246.8 266.186ZM254.01 261.749C253.794 261.75 253.686 261.644 253.578 261.537C253.47 261.323 253.469 261.001 253.792 260.785L257.45 258.62C257.666 258.511 257.989 258.51 258.205 258.83C258.314 259.045 258.314 259.366 257.992 259.583L254.333 261.748C254.225 261.748 254.117 261.749 254.01 261.749ZM261.219 257.42C261.004 257.421 260.896 257.314 260.788 257.208C260.679 256.994 260.679 256.672 261.001 256.455L264.66 254.29C264.875 254.182 265.199 254.18 265.415 254.501C265.523 254.715 265.524 255.037 265.201 255.253L261.543 257.418C261.435 257.419 261.327 257.419 261.219 257.42ZM268.429 253.091C268.214 253.092 268.106 252.985 267.998 252.878C267.889 252.664 267.888 252.342 268.211 252.126L271.87 249.961C272.085 249.853 272.409 249.851 272.625 250.172C272.733 250.386 272.734 250.708 272.411 250.924L268.752 253.089C268.645 253.09 268.537 253.09 268.429 253.091Z" fill="#209874"/>
<path d="M275.584 248.764C275.369 248.765 275.261 248.658 275.153 248.551C275.044 248.337 275.043 248.014 275.366 247.798L277.196 246.714C277.411 246.605 277.735 246.603 277.951 246.925C278.059 247.139 278.06 247.462 277.737 247.678L275.908 248.762C275.8 248.763 275.692 248.763 275.584 248.764Z" fill="#209874"/>
<defs>
<linearGradient id="paint0_linear_1624_247" x1="212.58" y1="37.9709" x2="252.218" y2="37.8309" gradientUnits="userSpaceOnUse">
<stop stop-color="#0D85FA"/>
<stop offset="0.1974" stop-color="#1371F3"/>
<stop offset="0.454" stop-color="#195EEC"/>
<stop offset="0.7183" stop-color="#1C53E7"/>
<stop offset="1" stop-color="#1D4FE6"/>
</linearGradient>
<linearGradient id="paint1_linear_1624_247" x1="252.145" y1="48.1029" x2="255.799" y2="48.0906" gradientUnits="userSpaceOnUse">
<stop stop-color="white"/>
<stop offset="1" stop-color="#D1D3D4"/>
</linearGradient>
<linearGradient id="paint2_linear_1624_247" x1="212.626" y1="14.2348" x2="255.685" y2="14.0841" gradientUnits="userSpaceOnUse">
<stop stop-color="white"/>
<stop offset="1" stop-color="#D1D3D4"/>
</linearGradient>
</defs>
</svg>
