<svg width="65" height="66" viewBox="0 0 65 66" fill="none" xmlns="http://www.w3.org/2000/svg">
<path d="M17.3175 40.9307C14.8787 40.9307 12.8828 42.9818 12.8828 45.4881C12.8828 47.9944 14.8787 50.0455 17.3175 50.0455C19.7562 50.0455 21.7521 47.9944 21.7521 45.4881C21.7521 42.9818 19.7562 40.9307 17.3175 40.9307ZM17.3175 47.7679C16.0971 47.7679 15.0991 46.7423 15.0991 45.4881C15.0991 44.2339 16.0971 43.2083 17.3175 43.2083C18.5379 43.2083 19.5358 44.2339 19.5358 45.4881C19.5358 46.7423 18.5379 47.7679 17.3175 47.7679Z" fill="#1A9E75"/>
<path d="M52.7984 40.9307C50.3597 40.9307 48.3638 42.9818 48.3638 45.4881C48.3638 47.9944 50.3597 50.0455 52.7984 50.0455C55.2372 50.0455 57.2331 47.9944 57.2331 45.4881C57.2331 42.9818 55.2372 40.9307 52.7984 40.9307ZM52.7984 47.7679C51.578 47.7679 50.5801 46.7423 50.5801 45.4881C50.5801 44.2339 51.578 43.2083 52.7984 43.2083C54.0188 43.2083 55.0168 44.2339 55.0168 45.4881C55.0168 46.7423 54.0188 47.7679 52.7984 47.7679Z" fill="#1A9E75"/>
<path d="M57.3449 31.8141L55.4592 22.6971C54.6837 19.7336 52.4653 18.1396 49.4715 18.1396H20.641C17.5369 18.1396 15.7614 19.7357 14.8757 22.6971L12.8798 31.8141H5.11865V34.0938H12.3268V34.2071C8.89009 34.4357 6.22888 37.3971 6.22888 41.0443V56.8831H9.55539V60.3017C9.55539 63.4917 11.9941 66.0001 15.1003 66.0001C18.2064 66.0001 20.6451 63.4938 20.6451 60.3017V56.8831H49.4756V60.3017C49.4756 63.4917 51.9144 66.0001 55.0205 66.0001C58.1266 66.0001 60.5654 63.4938 60.5654 60.3017V56.8831H63.8919V41.0443C63.8919 37.5124 61.2307 34.5489 57.9042 34.2071V34.0938H65V31.8141H57.349H57.3449ZM16.9839 23.3808C17.6492 21.3296 18.6472 20.4173 20.6431 20.4173H49.4735C51.5796 20.4173 52.8 21.3296 53.3552 23.2654L55.5735 34.2049H14.5472L16.986 23.3787L16.9839 23.3808ZM18.4247 60.3017C18.4247 62.2396 16.9839 63.7203 15.0982 63.7203C13.2125 63.7203 11.7717 62.2396 11.7717 60.3017V56.8831H18.4247V60.3017ZM58.3428 60.3017C58.3428 62.2396 56.9021 63.7203 55.0163 63.7203C53.1306 63.7203 51.6898 62.2396 51.6898 60.3017V56.8831H58.3428V60.3017ZM61.6694 41.0443V54.6054H8.44516V41.0443C8.44516 38.538 10.4411 36.4869 12.8798 36.4869H57.2326C59.6714 36.4869 61.6673 38.538 61.6673 41.0443H61.6694Z" fill="#020202"/>
<path d="M5.63 18.1037C3.63132 14.6245 2 7.88372 2 7.88372C7.11638 6.51179 10.4429 5.61023 12.6713 3C16.3101 6.03724 19.5823 7.13034 23.3847 7.88372C23.3847 7.88372 21.4819 14.5529 19.399 18.1037C17.4864 21.3643 12.6713 24.9767 12.6713 24.9767C12.6713 24.9767 7.55802 21.4599 5.63 18.1037Z" stroke="#1A9E75" stroke-width="3"/>
</svg>
