<svg width="81" height="81" viewBox="0 0 81 81" fill="none" xmlns="http://www.w3.org/2000/svg">
<path d="M14.874 42.3232C14.0474 42.3232 13.3774 42.9945 13.3774 43.8224C13.3774 44.6466 14.0476 45.3155 14.874 45.3155C15.7018 45.3155 16.3719 44.6466 16.3719 43.8224C16.3719 42.9945 15.7018 42.3232 14.874 42.3232Z" fill="#020202"/>
<path d="M60.1963 42.3232C59.3672 42.3232 58.6997 42.9945 58.6997 43.8224C58.6997 44.6466 59.3673 45.3155 60.1963 45.3155C61.0205 45.3155 61.6929 44.6466 61.6929 43.8224C61.6929 42.9945 61.0204 42.3232 60.1963 42.3232Z" fill="#020202"/>
<path d="M26.2844 26.5689C25.1046 27.4721 23.6905 28.9261 23.6905 28.9261C23.5751 29.0331 23.5364 29.1994 23.5933 29.3438C23.6493 29.4882 23.7889 29.5865 23.9455 29.5865H41.4295V21.1772C41.2292 21.1721 41.0289 21.1699 40.8273 21.1699C34.9281 21.1699 30.8327 23.0878 26.2844 26.5689Z" fill="#1A9E75"/>
<path d="M56.9334 26.6331C53.4727 23.9748 49.3955 22.2024 45.0342 21.5059V29.5864H59.196C59.3514 29.5864 59.4922 29.488 59.5481 29.3437C59.6039 29.1993 59.5639 29.033 59.4509 28.9261C59.4509 28.9261 58.084 27.5228 56.9334 26.6331Z" fill="#1A9E75"/>
<path d="M75.4722 38.9914H73.932C73.0362 35.6522 70.9142 32.8129 68.0813 30.9898C62.0534 22.1943 51.9276 16.4189 40.4606 16.4189C30.359 16.4262 22.7556 21.4988 16.6368 28.5136C15.9073 28.3933 15.219 28.3497 14.43 28.3509C6.46117 28.352 0 34.8134 0 42.7822C0 43.2701 0.0254707 43.7496 0.0715078 44.2254L0.168645 45.1904H7.74183C8.38271 48.5478 11.3288 51.086 14.8743 51.086C18.4199 51.086 21.3658 48.5478 22.0091 45.1904H27.7202H48.0493H53.0637C53.7022 48.5478 56.6506 51.086 60.1961 51.086C63.7392 51.086 66.684 48.5478 67.3297 45.1904H72.0625H73.2302H74.1781L74.2947 44.2472C74.3639 43.6985 74.4015 43.1353 74.4015 42.5601C74.4015 42.1061 74.3724 41.6595 74.3287 41.2163H75.4722C76.3876 41.2163 77.2068 41.5842 77.8076 42.1837C78.4074 42.7846 78.7752 43.6039 78.7752 44.5191V54.9727C78.7752 55.8892 78.4074 56.7085 77.8076 57.3081C77.2068 57.9077 76.3876 58.2768 75.4722 58.2768H44.9384C44.4285 55.9439 42.3541 54.1971 39.8696 54.1971H34.6765V56.0506H31.4127V57.9053H34.6765V60.872H31.4127V62.7267H34.6765V64.5815H39.8694C42.3541 64.5815 44.4285 62.8335 44.9382 60.5018H75.4721C78.5263 60.5005 81 58.0265 81 54.9726V44.519C81 41.4652 78.5263 38.9914 75.4722 38.9914ZM14.8743 47.2951C12.9553 47.2951 11.4003 45.7414 11.4003 43.8224C11.4003 41.9009 12.954 40.3459 14.8743 40.3459C16.7945 40.3459 18.3506 41.9021 18.3506 43.8224C18.3506 45.7414 16.7945 47.2951 14.8743 47.2951ZM60.1963 47.2951C58.2735 47.2951 56.7174 45.7414 56.7174 43.8224C56.7174 41.9009 58.2735 40.3459 60.1963 40.3459C62.1142 40.3459 63.6703 41.9021 63.6703 43.8224C63.6701 45.7414 62.114 47.2951 60.1963 47.2951ZM72.224 43.0444H72.0626H67.4173C67.03 39.3992 63.9432 36.5539 60.1963 36.5539C56.4443 36.5539 53.36 39.3992 52.9715 43.0444H48.0495H27.7204H22.0978C21.7105 39.3992 18.6238 36.5539 14.8743 36.5539C11.1247 36.5539 8.04162 39.3992 7.65086 43.0444H2.15821C2.15821 42.9558 2.14492 42.8708 2.14492 42.7822C2.14618 39.387 3.52018 36.3234 5.74388 34.0948C7.97122 31.8711 11.0326 30.4982 14.43 30.4982C15.3622 30.5019 15.9703 30.5504 16.8127 30.73L17.4427 30.8672L17.8591 30.3707C23.6308 23.5175 30.8871 18.5577 40.4606 18.5651C51.2757 18.5651 60.8055 24.0418 66.4365 32.3772L66.564 32.5677L66.7595 32.6867C70.0598 34.7381 72.2569 38.3892 72.2569 42.5601C72.2567 42.7239 72.2313 42.8817 72.224 43.0444Z" fill="#020202"/>
</svg>
