<svg width="96" height="55" viewBox="0 0 96 55" fill="none" xmlns="http://www.w3.org/2000/svg">
<g id="Group 2">
<g id="Group 218">
<path id="Vector" d="M85.7776 13.3616L83.7285 15.0426H82.6855L82.9064 14.6868H60.5751H47.9125H17.4095L18.7592 12.0365H49.2622H61.9248H82.9064L82.6855 11.6807H83.7285L85.7776 13.3616ZM51.8389 15.5089L48.7714 21.5334H52.9309L55.9984 15.5089H51.8389ZM16.9923 15.5089L13.9248 21.5334H17.9739L19.7285 18.0733H24.9923L26.3052 15.5089H16.9923ZM31.0168 15.4475C29.753 15.4475 28.5997 16.1592 28.023 17.2758L25.8266 21.5948H28.4524L30.7346 17.1162H34.6855L34.3911 17.6929H31.1395L30.2929 19.3616H33.5444L32.4033 21.5948H35.0291L38.1579 15.4353H31.0168V15.4475ZM37.3236 19.9874L36.4524 21.6929H44.5383C46.0107 21.6929 47.2009 20.5027 47.2009 19.0304C47.2009 18.3064 46.6119 17.7175 45.888 17.7175H41.1886L41.5322 17.0426H47.7653L48.6242 15.3616H42.0598C40.7592 15.3616 39.2868 16.0488 38.4892 17.7175C38.1211 18.4537 38.6487 19.3248 39.4708 19.3248H44.4279L44.0843 19.9997H37.3236V19.9874ZM63.4831 19.3248L64.3052 17.7175H60.4156C59.1518 17.7175 57.9984 18.4291 57.4217 19.558L57.1763 20.0365C56.796 20.785 57.3358 21.6684 58.1825 21.6684H65.7285L68.1947 16.834C68.526 16.1715 68.0475 15.3862 67.3113 15.3862H59.9003L59.0168 17.1285H65.3481L65.0414 17.7175L63.9248 19.9261H59.9003L60.1825 19.3371H63.4831V19.3248ZM78.4647 15.3126C79.1763 15.3126 79.6426 16.061 79.3113 16.6991L75.9739 23.2635C75.4463 24.3064 74.3665 24.969 73.1886 24.969H37.8757L38.3052 25.4843H37.4585L35.7898 24.1101L37.4585 22.7359H38.3052L37.8757 23.2512H73.25L74.1579 21.4721H69.1886C68.4524 21.4721 67.9739 20.6868 68.3052 20.0365L69.9616 16.7972C70.4279 15.8893 71.3604 15.3126 72.3911 15.3126H78.4647ZM76.477 16.9199H72.5628L71.115 19.7666H75.0291L76.477 16.9199Z" fill="#020202"/>
<path id="Vector_2" d="M49.0514 11.8271L47.7017 14.4775H60.3642L61.7139 11.8271H49.0514Z" fill="#38AC49"/>
<path id="Vector_3" d="M18.5479 11.8271L17.1982 14.4775H47.7013L49.051 11.8271H18.5479Z" fill="#E98824"/>
<path id="Vector_4" d="M83.5186 11.4717H82.4757L82.6965 11.8275H61.7149L60.3652 14.4778H82.6965L82.4757 14.8459H83.5186L85.58 13.1527L83.5186 11.4717Z" fill="#E98824"/>
<path id="Vector_5" d="M53.6293 14.0485C54.66 13.5209 55.1508 14.0117 55.2612 14.159L54.8931 14.4044C54.5005 14.0485 53.8379 14.2449 53.6538 14.3185L53.6293 14.0485ZM53.5434 13.3001L53.5802 13.6436C55.1262 12.8584 55.7397 13.6559 55.8256 13.7786L56.2796 13.4841C55.887 12.6743 54.2796 12.8093 53.5434 13.3001ZM53.4575 12.5393L53.4943 12.8706C55.433 12.0117 56.4146 12.4289 56.844 13.1037L57.3103 12.797C56.4759 11.4596 54.4637 11.9013 53.4575 12.5393Z" fill="white"/>
<path id="Vector_6" d="M53.3333 11.471C55.6032 10.1581 57.9222 10.4649 58.6462 11.8882L58.0327 12.2931C57.3701 11.0661 55.2474 10.833 53.3824 11.9741L53.3333 11.471ZM53.186 10.1336L53.2597 10.833C55.7259 9.50783 58.3885 9.66734 59.3701 11.4097L60.2535 10.8207C59.4928 8.73483 55.2842 8.69802 53.186 10.1336Z" fill="#E98824"/>
<path id="Vector_7" d="M24.7823 17.8768H19.5185L17.7639 21.3369H13.7148L16.7823 15.3124H26.0952L24.7823 17.8768ZM30.8191 15.2388C29.5553 15.2388 28.402 15.9504 27.8253 17.067L25.629 21.386H28.2547L30.5369 16.9075H34.4878L34.1934 17.4842H30.9296L30.0829 19.1529H33.3345L32.2056 21.386H34.8314L37.9602 15.2265H30.8191V15.2388ZM47.5676 16.8216L48.4265 15.1406H41.8621C40.5615 15.1406 39.0891 15.8277 38.2793 17.4965C37.9112 18.2327 38.4388 19.1038 39.2609 19.1038H44.2179L43.8744 19.7787H37.1136L36.2425 21.4842H44.3283C45.8007 21.4842 46.9909 20.294 46.9909 18.8216C46.9909 18.0977 46.402 17.4965 45.678 17.4965H40.9786L41.3222 16.8216H47.5676Z" fill="#E98824"/>
<path id="Vector_8" d="M52.7344 21.3248H48.5749L51.6424 15.3003H55.8019L52.7344 21.3248ZM67.1025 15.1776H59.6915L58.808 16.9199H65.1516L64.8449 17.5088L63.7283 19.7174H59.7038L59.986 19.1285H63.2988L64.1209 17.5211H60.2314C58.9676 17.5211 57.8142 18.2328 57.2375 19.3616L56.9921 19.8401C56.6117 20.5886 57.1516 21.472 57.9982 21.472H65.5442L68.0105 16.6377C68.3295 15.9628 67.8387 15.1776 67.1025 15.1776ZM78.2682 15.1162C78.9798 15.1162 79.4461 15.8647 79.1148 16.5027L75.7774 23.0671C75.2498 24.1101 74.17 24.7727 73.0044 24.7727H37.6669L38.1087 25.288H37.2498L35.5811 23.9138L37.2498 22.5518H38.1087L37.6669 23.0671H73.0412L73.9492 21.288H68.9798C68.2436 21.288 67.7651 20.5027 68.0964 19.8524L69.7528 16.6131C70.2191 15.7052 71.1516 15.1285 72.1823 15.1285H78.2682M76.2682 16.7236H72.3541L70.9062 19.5702H74.8203L76.2682 16.7236Z" fill="#38AC49"/>
<path id="Vector_9" d="M64.7202 13.3605H62.2907C62.2049 13.3605 62.1435 13.2746 62.1926 13.1888L62.2539 13.0661C62.2907 12.9924 62.3644 12.9556 62.438 12.9556H64.8674C64.9533 12.9556 65.0147 13.0415 64.9656 13.1274L64.9042 13.2501C64.8797 13.3115 64.8061 13.3605 64.7202 13.3605ZM70.2049 13.3605C70.2907 13.3605 70.3644 13.3115 70.3889 13.2378L70.4503 13.1151C70.4871 13.0415 70.438 12.9434 70.3521 12.9434H67.9226C67.8368 12.9434 67.7631 12.9924 67.7263 13.0538L67.665 13.1765C67.6282 13.2501 67.6773 13.3483 67.7631 13.3483H70.2049M75.6895 13.3605C75.7754 13.3605 75.849 13.3115 75.8858 13.2378L75.9472 13.1151C75.984 13.0415 75.9349 12.9434 75.849 12.9434H73.4196C73.3337 12.9434 73.2601 12.9924 73.2233 13.0538L73.1619 13.1765C73.1251 13.2501 73.1742 13.3483 73.2601 13.3483H75.6895M81.1742 13.3605C81.2601 13.3605 81.3337 13.3115 81.3705 13.2378L81.4319 13.1151C81.4687 13.0415 81.4196 12.9434 81.3337 12.9434H78.9042C78.8184 12.9434 78.7447 12.9924 78.7202 13.0538L78.6588 13.1765C78.622 13.2501 78.6711 13.3483 78.757 13.3483H81.1742M45.8368 24.0599C45.8981 24.0599 45.9472 24.0231 45.9717 23.974L46.0085 23.8881C46.0331 23.8391 45.9963 23.7654 45.9349 23.7654H44.2171C44.1558 23.7654 44.1067 23.8023 44.0822 23.8513L44.0331 23.9372C44.0085 23.9863 44.0453 24.0599 44.1067 24.0599H45.8368ZM54.1558 24.0599C54.2171 24.0599 54.2662 24.0231 54.2907 23.974L54.3276 23.8881C54.3521 23.8391 54.3153 23.7654 54.2539 23.7654H52.5361C52.4748 23.7654 52.4257 23.8023 52.4012 23.8513L52.3521 23.9372C52.3276 23.9863 52.3644 24.0599 52.4257 24.0599H54.1558ZM62.4871 24.0599C62.5484 24.0599 62.5975 24.0231 62.622 23.974L62.6588 23.8881C62.6834 23.8391 62.6466 23.7654 62.5852 23.7654H60.8674C60.8061 23.7654 60.757 23.8023 60.7325 23.8513L60.6834 23.9372C60.6588 23.9863 60.6957 24.0599 60.757 24.0599H62.4871ZM70.8061 24.0599C70.8674 24.0599 70.9165 24.0231 70.9411 23.974L70.9779 23.8881C71.0024 23.8391 70.9656 23.7654 70.9042 23.7654H69.1865C69.1251 23.7654 69.076 23.8023 69.0515 23.8513L69.0024 23.9372C68.9779 23.9863 69.0147 24.0599 69.076 24.0599H70.8061Z" fill="#EDC91A"/>
<rect id="Rectangle 3" x="15.999" y="30.8389" width="66.2857" height="4.57143" fill="#1A9E75"/>
<rect id="Rectangle 4" x="15.999" y="39.9824" width="66.2857" height="4.57143" fill="#1A9E75"/>
<rect id="Rectangle 5" x="1.5" y="1.5" width="93" height="51.8571" rx="2.5" stroke="#020202" stroke-width="3"/>
</g>
</g>
</svg>
