<svg width="125" height="84" viewBox="0 0 125 84" fill="none" xmlns="http://www.w3.org/2000/svg">
<g id="Group">
<path id="Vector" d="M71.9507 59.9209C69.7911 58.6398 67.8501 58.5414 66.3429 59.4092L60.4217 62.8802C61.8212 62.0128 63.7621 62.1113 66.0295 63.3918C70.3484 65.8463 73.8138 71.8555 73.8263 76.805C73.8326 79.2797 72.9744 81.0053 71.5749 81.8726L77.4961 78.4017C78.8955 77.5343 79.7537 75.8087 79.7474 73.334C79.7349 68.3845 76.2696 62.3753 71.9507 59.9209Z" fill="#414042"/>
<path id="Vector_2" d="M21.0151 30.6689C18.8555 29.3879 16.9146 29.2894 15.4073 30.1573L9.48619 33.6282C10.8856 32.7609 12.8266 32.8593 15.0939 34.1399C19.4128 36.5943 22.8782 42.6035 22.8907 47.553C22.897 50.0277 22.0388 51.7533 20.6394 52.6207L26.5605 49.1497C27.9599 48.2824 28.8181 46.5568 28.8119 44.082C28.7994 39.1326 25.334 33.1234 21.0151 30.6689Z" fill="#414042"/>
<path id="Vector_3" d="M103.987 30.6818C103.987 30.6818 93.0688 17.7271 82.5981 11.4345C82.5981 11.4345 68.559 0.536614 47.1125 1.28214C41.1852 1.52491 35.3689 3.05702 29.9867 5.76945L6.62841 17.7026C6.62841 17.7026 0.707055 20.3101 0.728526 28.8015L0.741844 34.0683C0.748095 36.5405 1.83159 38.7926 3.77542 40.2883C5.07123 41.2496 6.69094 42.4244 8.52645 43.7056L71.8817 78.4493L73.6054 78.1187L79.1092 80.8876C82.3467 82.4847 86.0128 83.1124 89.5681 82.5583C94.093 81.7847 100.557 80.4645 106.586 77.8565C113.907 74.705 119.069 70.2739 121.862 66.4987C123.473 64.3414 124.436 61.6497 124.43 58.9626L124.422 56.168C124.418 54.4482 123.983 52.7304 123.009 51.2302C123.009 51.2302 122.889 46.6088 118.135 41.6867C113.38 36.7646 103.987 30.6818 103.987 30.6818Z" fill="#FFC93F"/>
<path id="Vector_4" d="M19.7824 18.1148C18.9212 18.5488 18.4928 19.6259 18.9263 20.5914C19.4677 21.5564 20.5491 22.9489 23.0321 24.5498L57.3585 44.8147C58.1141 45.2412 58.9747 44.5921 58.7569 43.7331C58.1032 40.941 56.1498 35.6825 50.5296 29.5811C42.7479 21.1247 27.102 14.3178 19.7824 18.1148Z" fill="#414042"/>
<path id="Vector_5" d="M54.7089 28.6553C54.3858 28.7643 54.2788 29.0874 54.4949 29.3014L66.0698 45.6983C68.3416 48.9134 72.1185 50.6161 75.9972 49.9527C84.1861 48.7315 97.9726 44.5809 104.081 30.574C104.081 30.574 93.1617 17.6148 82.6902 11.32C82.5827 11.4281 73.3448 24.0518 54.7089 28.6553Z" fill="#414042"/>
<path id="Vector_6" d="M119.747 43.8168L119.531 43.8178C119.531 43.8178 119.209 44.3564 118.78 45.1104C117.922 46.6183 117.495 48.2316 117.607 49.9498C117.608 50.5943 117.718 51.2383 117.719 51.7754C117.721 52.4199 117.507 53.1729 116.969 53.605C114.712 55.764 107.506 61.8133 96.7372 64.9789C95.9833 65.1973 95.2284 64.986 94.5807 64.5593C94.3646 64.3455 94.0408 64.1322 93.7169 63.9189C92.2054 62.8518 90.4797 62.3227 88.6477 62.3313C86.0612 62.3434 81.8579 62.2557 78.1929 61.9506C78.1929 61.9506 77.0072 61.8487 75.4978 61.641C74.7432 61.5371 74.3145 62.5059 74.9623 62.9325L79.6045 66.1334C83.1672 68.5874 87.6959 69.5329 92.0046 68.6534C97.9289 67.444 106.544 64.933 113.213 59.853C117.731 56.3944 120.848 53.1572 122.997 50.4616C122.562 48.9598 121.801 46.6001 119.747 43.8168Z" fill="#F1F2F2"/>
<path id="Vector_7" d="M96.871 74.4829L99.2356 71.8928C99.3431 71.7848 99.4509 71.7843 99.5586 71.7838C100.959 71.5623 111.516 69.5785 119.362 60.8374C119.469 60.7295 119.685 60.621 119.9 60.5125L121.193 60.2915C121.516 60.29 121.84 60.6109 121.626 60.9343C120.768 62.7651 118.086 67.6134 111.736 71.0819C104.74 74.8759 100.106 75.3274 97.1965 75.3411C96.7651 75.2356 96.6563 74.8063 96.871 74.4829Z" fill="#414042"/>
<path id="Vector_8" d="M2.47367 29.5295C2.47367 29.5295 3.22104 26.2953 2.78439 24.3589C2.67482 23.7133 2.34967 23.1764 2.0245 22.6394C1.27276 24.1506 0.845902 26.091 0.743687 28.353L2.47367 29.5295Z" fill="#FFC200"/>
<g id="Group_2">
<path id="Vector_9" d="M15.1028 34.1454C19.4216 36.5911 22.8874 42.589 22.9006 47.5333C22.9138 52.4775 19.3617 54.5416 15.0429 52.0959C10.7241 49.6502 7.25828 43.6523 7.24508 38.708C7.23188 33.7638 10.6762 31.7004 15.1028 34.1454Z" fill="#414042"/>
</g>
<g id="Group_3">
<path id="Vector_10" d="M15.0891 36.1879C18.4362 38.1021 21.2518 42.8142 21.1543 46.6843C21.1646 50.5537 18.3657 52.0757 15.0186 50.1615C11.6715 48.2473 8.85593 43.5352 8.9534 39.6651C8.94307 35.7957 11.6342 34.2744 15.0891 36.1879Z" fill="#D3D3D3"/>
</g>
<g id="Group_4">
<path id="Vector_11" d="M15.0094 39.3046C16.8449 40.3683 18.361 42.939 18.3667 45.0889C18.3725 47.2388 16.8655 48.1081 15.03 47.0444C13.1945 45.9806 11.6784 43.41 11.6727 41.26C11.6669 39.1101 13.1739 38.2409 15.0094 39.3046Z" fill="#414042"/>
</g>
<g id="Group_5">
<path id="Vector_12" d="M65.9396 63.3962C70.2584 65.8419 73.7243 71.8398 73.7375 76.7841C73.7507 81.7284 70.1986 83.7924 65.8797 81.3467C61.5609 78.901 58.0951 72.9031 58.0819 67.9588C58.1762 62.9064 61.6208 60.9505 65.9396 63.3962Z" fill="#414042"/>
</g>
<g id="Group_6">
<path id="Vector_13" d="M65.935 65.3315C69.2821 67.2457 72.0977 71.9578 72.0002 75.8279C72.0105 79.6973 69.2116 81.2193 65.8645 79.3051C62.5174 77.3909 59.7018 72.6788 59.7993 68.8087C59.8971 65.0461 62.5879 63.4173 65.935 65.3315Z" fill="#D3D3D3"/>
</g>
<g id="Group_7">
<path id="Vector_14" d="M65.9501 68.4478C67.7856 69.5115 69.3017 72.0822 69.3075 74.2321C69.3132 76.382 67.8063 77.2512 65.9708 76.1875C64.1353 75.1238 62.6191 72.5532 62.6134 70.4032C62.608 68.3608 64.1149 67.4916 65.9501 68.4478Z" fill="#414042"/>
</g>
<path id="Vector_15" d="M67.4185 23.7319L67.4788 47.5353C68.8874 48.8212 70.7277 49.782 72.6745 50.096L72.5998 20.5841C71.089 21.6683 69.3617 22.6457 67.4185 23.7319Z" fill="#4C4C4C"/>
<path id="Vector_16" d="M82.5778 11.4088C82.5778 11.4088 80.8574 13.7855 77.3044 16.8169L77.3877 49.7625C82.0255 48.987 87.9555 47.2365 93.3412 43.5505L93.2807 19.6488C90.0364 16.757 86.2521 13.6525 82.5778 11.4088Z" fill="#4C4C4C"/>
</g>
</svg>
