<svg width="23" height="14" viewBox="0 0 23 14" fill="none" xmlns="http://www.w3.org/2000/svg">
<g id="Group">
<g id="Group_2">
<path id="Vector" d="M11.4945 13.3708C8.6926 13.3879 6.10454 12.7604 4.05413 11.7008C2.00344 10.534 0.921468 8.93248 0.917188 7.3244C0.912621 5.60911 1.98631 4.10166 4.03073 2.90993C5.96738 1.71885 8.65978 1.0592 11.4617 1.04214C14.2636 1.02508 16.8517 1.65258 18.9024 2.81938C20.9531 3.98618 22.035 5.58771 22.0393 7.19579C22.0439 8.91109 20.9703 10.4185 18.9258 11.6103C16.8811 12.6948 14.2964 13.3537 11.4945 13.3708ZM11.3551 1.47165C8.66095 1.48805 6.184 2.14635 4.24706 3.23022C2.4179 4.31343 1.45174 5.71302 1.45573 7.21391C1.45973 8.71479 2.54111 10.1019 4.37599 11.1628C6.31863 12.2231 8.79894 12.8512 11.4931 12.8348C14.1872 12.8184 16.6642 12.1601 18.6011 11.0762C20.4303 9.99299 21.3965 8.5934 21.3925 7.09252C21.3885 5.59164 20.3071 4.20451 18.4722 3.14361C16.6373 2.0827 14.0493 1.45524 11.3551 1.47165Z" fill="#209874"/>
</g>
</g>
</svg>
