<svg width="135" height="66" viewBox="0 0 135 66" fill="none" xmlns="http://www.w3.org/2000/svg">
<g id="Group">
<path id="Vector" d="M3.12791 57.7876C3.02011 57.7881 2.91228 57.7886 2.8042 57.6816L1.07605 56.3993C0.859898 56.1852 0.751303 55.8631 0.966369 55.6471C1.18144 55.431 1.50456 55.3219 1.72071 55.536L3.44886 56.8183C3.66502 57.0323 3.77365 57.3544 3.55858 57.5705C3.45105 57.6785 3.23572 57.7871 3.12791 57.7876Z" fill="#209874"/>
<path id="Vector_2" d="M22.3007 64.9242C21.9774 64.9257 21.7613 64.7119 21.7605 64.3897C21.7597 64.0675 21.9747 63.8517 22.298 63.8502C23.699 63.8436 24.9916 63.6227 26.3918 63.294C26.7148 63.185 26.9309 63.3988 27.0395 63.7205C27.1481 64.0423 26.9331 64.2581 26.6101 64.367C25.2099 64.6958 23.8095 64.9171 22.3007 64.9242ZM18.0975 64.8365C16.5882 64.6287 15.1867 64.4204 13.7846 63.9974C13.461 63.8915 13.3524 63.5698 13.4596 63.3545C13.5666 63.0318 13.8896 62.9229 14.1054 63.0292C15.3997 63.4528 16.8013 63.6611 18.095 63.8698C18.4183 63.8683 18.6347 64.1895 18.5277 64.5122C18.6358 64.6191 18.4208 64.8349 18.0975 64.8365ZM30.4867 63.1674C30.2712 63.1684 30.0554 63.062 29.9471 62.8477C29.8385 62.526 29.9457 62.3107 30.2687 62.2018C31.5606 61.6587 32.7447 61.1161 33.9282 60.3587C34.1435 60.2503 34.4668 60.2488 34.6832 60.57C34.7915 60.7843 34.7923 61.1065 34.4695 61.3228C33.286 62.0802 31.9944 62.7307 30.5945 63.1669C30.5945 63.1669 30.5945 63.1669 30.4867 63.1674ZM10.1164 62.4035C10.0086 62.404 10.0086 62.404 9.90059 62.2971C8.60574 61.6587 7.4184 60.9125 6.23105 60.1662C6.01497 59.9524 5.90638 59.6307 6.12138 59.4149C6.33637 59.199 6.65942 59.0901 6.8755 59.3039C7.95508 60.0507 9.14241 60.797 10.4373 61.4353C10.6531 61.5417 10.7617 61.8635 10.6547 62.1862C10.4394 62.2946 10.2242 62.403 10.1164 62.4035ZM37.9127 59.1586C37.6971 59.1596 37.5891 59.0527 37.4811 58.9458C37.3728 58.7315 37.3719 58.4093 37.6947 58.193L41.3534 56.0278C41.5687 55.9193 41.892 55.9178 42.1083 56.239C42.2166 56.4533 42.2174 56.7755 41.8947 56.9919L38.236 59.1571C38.1282 59.1576 38.0205 59.1581 37.9127 59.1586ZM45.1223 54.8286C44.9068 54.8297 44.7987 54.7228 44.6907 54.6159C44.5823 54.4016 44.5815 54.0793 44.9043 53.863L48.563 51.6978C48.7782 51.5894 49.1016 51.5879 49.3179 51.9091C49.4262 52.1234 49.427 52.4456 49.1043 52.6619L45.4456 54.8271C45.3378 54.8276 45.2301 54.8281 45.1223 54.8286ZM52.3319 50.4987C52.1163 50.4997 52.0083 50.3928 51.9003 50.2859C51.792 50.0716 51.7912 49.7494 52.1139 49.5331L55.7726 47.3678C55.9879 47.2594 56.3111 47.2579 56.5275 47.5791C56.6358 47.7934 56.6366 48.1156 56.3139 48.3319L52.6552 50.4972C52.5474 50.4977 52.4397 50.4982 52.3319 50.4987ZM59.5415 46.1687C59.326 46.1697 59.2179 46.0629 59.1099 45.956C59.0016 45.7416 59.0007 45.4194 59.3235 45.2031L62.9822 43.0379C63.1974 42.9295 63.5208 42.928 63.7371 43.2492C63.8454 43.4635 63.8462 43.7857 63.5235 44.002L59.8648 46.1672C59.757 46.1677 59.6493 46.1682 59.5415 46.1687ZM66.7511 41.8388C66.5355 41.8398 66.4275 41.7329 66.3195 41.626C66.2112 41.4117 66.2104 41.0895 66.5331 40.8731L70.1918 38.7079C70.4071 38.5995 70.7304 38.598 70.9467 38.9192C71.055 39.1335 71.0558 39.4557 70.7331 39.672L67.0744 41.8373C66.9666 41.8378 66.8588 41.8383 66.7511 41.8388ZM73.9607 37.5088C73.7452 37.5098 73.6371 37.4029 73.5291 37.296C73.4208 37.0817 73.4199 36.7595 73.7427 36.5432L77.4014 34.378C77.6167 34.2695 77.94 34.268 78.1563 34.5892C78.2646 34.8035 78.2654 35.1257 77.9427 35.3421L74.284 37.5073C74.1762 37.5078 74.0685 37.5083 73.9607 37.5088ZM81.1703 33.1788C80.9548 33.1799 80.8467 33.073 80.7387 32.9661C80.6303 32.7518 80.6295 32.4295 80.9523 32.2132L84.611 30.048C84.8263 29.9396 85.1495 29.9381 85.3659 30.2593C85.4742 30.4736 85.4751 30.7958 85.1523 31.0121L81.4936 33.1773C81.3858 33.1778 81.2781 33.1783 81.1703 33.1788ZM88.3799 28.8489C88.1644 28.8499 88.0563 28.743 87.9483 28.6361C87.84 28.4218 87.8392 28.0996 88.1619 27.8833L91.8206 25.718C92.0358 25.6096 92.3592 25.6081 92.5755 25.9293C92.6838 26.1436 92.6846 26.4658 92.3619 26.6821L88.7032 28.8474C88.5954 28.8479 88.4877 28.8484 88.3799 28.8489ZM95.5895 24.5189C95.3739 24.5199 95.2659 24.4131 95.1579 24.3062C95.0496 24.0918 95.0488 23.7696 95.3715 23.5533L99.0302 21.3881C99.2454 21.2797 99.5688 21.2782 99.7851 21.5994C99.8934 21.8137 99.8942 22.1359 99.5715 22.3522L95.9128 24.5174C95.8048 24.4105 95.6972 24.5184 95.5895 24.5189ZM102.799 20.189C102.584 20.19 102.476 20.0831 102.367 19.9762C102.259 19.7619 102.258 19.4397 102.581 19.2233L106.24 17.0581C106.455 16.9497 106.778 16.9482 106.995 17.2694C107.103 17.4837 107.104 17.8059 106.781 18.0222L103.122 20.1874C103.014 20.0805 102.907 20.1885 102.799 20.189ZM110.008 15.7516C109.793 15.7526 109.685 15.6457 109.577 15.5388C109.468 15.3245 109.468 15.0023 109.79 14.786L113.449 12.6207C113.664 12.5123 113.988 12.5108 114.204 12.832C114.312 13.0463 114.313 13.3685 113.99 13.5848L110.332 15.7501C110.224 15.7506 110.116 15.7511 110.008 15.7516ZM117.218 11.4216C117.002 11.4226 116.894 11.3158 116.786 11.2089C116.678 10.9946 116.677 10.6723 117 10.456L120.659 8.29078C120.874 8.18236 121.197 8.18086 121.414 8.50207C121.522 8.71637 121.523 9.03856 121.2 9.25488L117.541 11.4201C117.434 11.4206 117.326 11.4211 117.218 11.4216ZM124.428 7.09167C124.212 7.09268 124.104 6.9858 123.996 6.8789C123.888 6.6646 123.887 6.34237 124.21 6.12605L127.868 3.96082C128.084 3.8524 128.407 3.8509 128.623 4.17211C128.732 4.38641 128.732 4.7086 128.41 4.92492L124.751 7.09016C124.643 7.09066 124.535 7.09117 124.428 7.09167Z" fill="#209874"/>
<path id="Vector_3" d="M131.584 2.76261C131.369 2.76362 131.261 2.65665 131.153 2.54966C131.044 2.33517 131.044 2.01266 131.366 1.79615L133.196 0.712581C133.412 0.604073 133.735 0.602569 133.951 0.924049C134.06 1.13854 134.06 1.46101 133.738 1.67752L131.908 2.76109C131.8 2.7616 131.692 2.7621 131.584 2.76261Z" fill="#209874"/>
</g>
</svg>
