<svg width="124" height="94" viewBox="0 0 124 94" fill="none" xmlns="http://www.w3.org/2000/svg">
<g id="Group">
<path id="Vector" d="M49.9986 71.7628C52.0441 70.5696 53.8767 70.4534 55.2802 71.2L60.8947 74.4016C59.4912 73.655 57.6587 73.7712 55.6132 74.9644C51.5222 77.3507 48.1943 83.069 48.2063 87.8033C48.2122 90.1704 49.0788 91.7803 50.3745 92.5274L44.76 89.3258C43.4643 88.5787 42.5977 86.9688 42.5917 84.6017C42.5797 79.8675 45.9076 74.1492 49.9986 71.7628Z" fill="#414042"/>
<path id="Vector_2" d="M106.027 38.297C108.072 37.1038 109.905 36.9876 111.308 37.7342L116.923 40.9357C115.52 40.1892 113.687 40.3054 111.641 41.4986C107.55 43.8849 104.223 49.6032 104.235 54.3375C104.241 56.7046 105.107 58.3144 106.403 59.0615L100.788 55.86C99.4926 55.1129 98.626 53.503 98.62 51.1359C98.6083 46.5093 101.936 40.6834 106.027 38.297Z" fill="#414042"/>
<path id="Vector_3" d="M23.4911 41.7344C23.4911 41.7344 38.1139 27.4742 43.3859 23.6865C43.3859 23.6865 63.6147 9.82998 79.5475 2.12185C82.7773 0.601518 86.4414 0.369303 89.786 1.64375C95.2882 3.66066 103.92 7.06055 109.965 10.7951C114.823 13.7826 117.955 16.3482 119.9 18.0593C121.628 19.6639 122.604 21.8095 122.717 24.0668L123.173 33.6332C123.398 37.5026 122.007 41.3796 119.103 44.081C118.888 44.297 118.566 44.6211 118.243 44.8376L103.827 55.764L60.6732 82.737L48.2921 88.3858C48.2921 88.3858 45.6018 90.1186 41.2926 90.9989C38.1685 91.6587 34.9341 91.3513 31.8059 90.3984C25.6573 88.492 13.142 83.7127 4.49662 74.8298C3.09189 73.4387 2.00996 71.8311 1.25084 70.0069C1.03419 69.5779 0.92505 69.0409 0.815906 68.5038C0.488745 67.0002 0.592743 65.4945 1.12813 64.0944C2.62733 60.2169 7.34729 51.2712 23.4911 41.7344Z" fill="#FFC93F"/>
<path id="Vector_4" d="M70.3822 41.1619C70.3822 41.1619 50.0948 32.2243 42.9597 23.9777C37.3649 28.0903 23.4942 41.7047 23.4942 41.7047C23.4942 41.7047 23.8284 46.0045 29.6619 51.0312C34.9553 55.6303 46.0719 61.1698 55.3446 62.2017C56.962 62.4091 58.4692 61.6493 59.3279 60.2473C61.7979 56.5796 67.7065 48.7019 70.3822 41.1619Z" fill="#414042"/>
<path id="Vector_5" d="M67.1681 59.7332C66.4147 60.1667 65.5505 59.4182 65.7639 58.5571C67.0465 54.2507 70.3644 44.9892 75.7392 39.2659C82.8337 31.5994 99.9494 22.8107 105.014 22.4644C109.325 22.1217 114.827 23.9235 116.445 24.4535C116.661 24.56 116.661 24.775 116.554 24.883C113.435 27.5854 90.7395 46.3988 67.1681 59.7332Z" fill="#414042"/>
<path id="Vector_6" d="M39.5635 78.7385C36.1124 77.8948 32.2296 76.8381 30.3961 76.3093C29.7488 76.0974 29.1027 76.3154 28.5649 76.7478L27.4893 77.6128C26.844 78.1532 25.8745 78.3727 25.0118 78.1618C17.0296 75.6196 11.7382 71.56 9.57772 69.6354C8.92969 69.101 8.60392 68.1351 8.70952 67.2747L8.92071 65.554C9.02686 64.9086 8.80967 64.2647 8.26969 63.8373C6.21646 61.6972 4.91717 59.3386 4.37529 58.1588C3.30131 59.6686 2.55011 60.962 2.01421 62.1468C3.32005 67.0851 7.10182 70.8293 7.10182 70.8293C11.9641 75.6434 23.5091 80.641 23.5091 80.641C23.5091 80.641 27.7185 82.986 33.4302 82.7442C36.4477 82.6226 38.493 81.6456 39.6764 80.7802C40.6448 80.1307 40.4262 78.9494 39.5635 78.7385Z" fill="white"/>
<path id="Vector_7" d="M119.864 18.1582C117.919 16.3405 114.787 13.8837 109.93 10.8976C103.777 7.05796 95.1465 3.65978 89.7529 1.75082C88.9977 1.43199 88.1349 1.22111 87.3802 1.11719L87.3805 1.22465C87.3805 1.22465 104.215 9.6349 112.32 18.5159C112.32 18.5159 116.632 18.8181 122.026 21.0494C121.377 19.9779 120.728 18.9063 119.864 18.1582Z" fill="#414042"/>
<path id="Vector_8" d="M122.905 29.6001L122.675 24.2192C122.674 23.4658 122.456 22.6057 122.238 21.8532C121.485 22.395 119.978 23.4784 118.257 25.2087C117.611 25.8576 117.722 26.8258 118.37 27.361C119.342 28.1099 120.962 29.071 122.905 29.6001Z" fill="#FFC200"/>
<g id="Group_2">
<path id="Vector_9" d="M55.6172 75.0893C51.5269 77.4791 48.2002 83.1962 48.2128 87.9255C48.2254 92.6547 51.5723 94.4614 55.6626 92.0716C59.7528 89.6819 63.0796 83.9647 63.0669 79.2355C63.0543 74.5062 59.7075 72.6995 55.6172 75.0893Z" fill="#414042"/>
</g>
<g id="Group_3">
<path id="Vector_10" d="M55.6186 76.9147C52.3894 78.7618 49.8141 83.2922 49.9317 86.9462C49.9414 90.6008 52.5327 92.0897 55.7619 90.2426C58.9911 88.3954 61.5664 83.865 61.4488 80.2111C61.4391 76.5565 58.8478 75.0675 55.6186 76.9147Z" fill="#7DAEEA"/>
</g>
<g id="Group_4">
<path id="Vector_11" d="M55.6316 79.9287C53.9093 80.9068 52.5145 83.3878 52.5199 85.4302C52.5254 87.4726 53.9288 88.2165 55.7588 87.2378C57.4811 86.2597 58.8759 83.7787 58.8705 81.7363C58.865 79.6939 57.4613 78.8425 55.6316 79.9287Z" fill="#414042"/>
</g>
<g id="Group_5">
<path id="Vector_12" d="M116.912 53.1537C119.798 48.1458 119.799 42.7432 116.914 41.0868C114.03 39.4303 109.352 42.1472 106.466 47.1551C103.58 52.163 103.579 57.5655 106.463 59.222C109.348 60.8785 114.026 58.1616 116.912 53.1537Z" fill="#414042"/>
</g>
<g id="Group_6">
<path id="Vector_13" d="M111.647 43.4498C108.418 45.297 105.843 49.8274 105.96 53.4813C105.97 57.1359 108.561 58.6249 111.79 56.7777C115.02 54.9306 117.595 50.4002 117.477 46.7462C117.468 43.0916 114.876 41.6027 111.647 43.4498Z" fill="#7DAEEA"/>
</g>
<g id="Group_7">
<path id="Vector_14" d="M113.881 51.4195C115.131 49.2512 115.141 46.918 113.905 46.2082C112.669 45.4985 110.654 46.6809 109.404 48.8492C108.155 51.0176 108.144 53.3508 109.381 54.0605C110.617 54.7703 112.632 53.5879 113.881 51.4195Z" fill="#414042"/>
</g>
<path id="Vector_15" d="M42.9569 23.9574C37.3629 28.0673 23.4941 41.6729 23.4941 41.6729C23.4941 41.6729 23.6044 42.6396 24.3629 44.248L57.3175 34.4216C51.8131 31.3309 46.0916 27.5965 42.9569 23.9574Z" fill="#4C4C4C"/>
<path id="Vector_16" d="M29.2331 50.6939L66.8123 39.5797C65.7334 39.0485 64.4387 38.4111 63.036 37.667L26.8562 48.2384C27.5047 48.9861 28.2611 49.8405 29.2331 50.6939Z" fill="#4C4C4C"/>
<path id="Vector_17" d="M122.673 24.2213L122.672 24.1136C122.349 24.3305 121.919 24.7631 121.488 25.0881C121.165 25.3049 121.274 25.8427 121.598 26.0565C121.922 26.2703 122.355 26.4836 122.787 26.8045L122.673 24.2213Z" fill="#FF9100"/>
</g>
</svg>
