<svg width="45" height="152" viewBox="0 0 45 152" fill="none" xmlns="http://www.w3.org/2000/svg">
<g id="Group 540">
<path id="Vector" d="M23.9174 38.4929C22.829 37.8506 20.9817 37.8574 19.8968 38.5077C19.3543 38.8329 19.0295 39.265 19.0307 39.696L19.002 149.474C19.0032 149.905 19.3304 150.335 19.8745 150.656C20.9629 151.299 22.8102 151.292 23.8951 150.641C24.4376 150.316 24.7624 149.884 24.7612 149.453L24.7899 39.6748C24.7899 39.6748 24.7899 39.6748 24.7902 39.7825C24.7887 39.2438 24.4616 38.8141 23.9174 38.4929ZM23.9235 40.7553C24.0322 40.7549 24.0319 40.6471 24.1406 40.6467C24.0322 40.7549 24.0322 40.7549 23.9235 40.7553ZM24.1406 40.6467L24.2489 40.5386C24.2489 40.5386 24.2489 40.5386 24.1406 40.6467Z" fill="#1D4FE6"/>
<g id="Group">
<g id="Group_2">
<g id="Group_3">
<path id="Vector_2" d="M40.2072 25.3386L40.2407 70.6718L0.627244 48.2201L0.593714 2.88682L40.2072 25.3386Z" fill="url(#paint0_linear_1624_348)"/>
</g>
<g id="Group_4">
<path id="Vector_3" d="M40.2122 25.4193L43.768 23.3443L43.6899 68.7925L40.242 70.8667L40.2122 25.4193Z" fill="url(#paint1_linear_1624_348)"/>
</g>
<g id="Group_5">
<path id="Vector_4" d="M0.593678 2.87754L4.14281 0.819284L43.7534 23.153L40.2043 25.2113L0.593678 2.87754Z" fill="url(#paint2_linear_1624_348)"/>
</g>
</g>
</g>
<path id="Vector_5" d="M27.5009 29.9676C25.9852 27.7115 23.7154 25.6736 20.4757 23.8548C17.3438 22.0355 15.0766 20.9669 13.4574 20.3267L13.4198 46.3906L18.6036 49.3869L18.5781 39.9093C19.0102 40.2308 19.6584 40.6592 20.3065 41.0876C23.438 42.7992 26.0279 43.5434 27.8583 42.5673C29.258 41.8082 30.0081 40.0822 30.0012 37.4974C29.9942 34.9126 29.0162 32.116 27.5009 29.9676ZM20.294 36.4565C19.5381 36.0285 18.998 35.7074 18.5656 35.2782L18.5444 27.4161C18.8682 27.5226 19.6238 27.8429 20.7035 28.3774C23.2954 29.8755 24.811 32.1316 24.8177 34.6087C24.8252 37.4089 23.1018 38.0616 20.294 36.4565Z" fill="#41FEFF"/>
<g id="Group_6">
<path id="Vector_6" d="M38.2859 67.373L2.53499 46.9811L2.53934 6.07762L38.2903 26.4694L38.2859 67.373ZM3.18126 46.6552L37.6361 66.2996L37.6443 26.903L3.18946 7.25862L3.18126 46.6552Z" fill="#41FEFF"/>
</g>
</g>
<defs>
<linearGradient id="paint0_linear_1624_348" x1="0.566309" y1="36.9312" x2="40.231" y2="36.8076" gradientUnits="userSpaceOnUse">
<stop stop-color="#0D85FA"/>
<stop offset="0.1974" stop-color="#1371F3"/>
<stop offset="0.454" stop-color="#195EEC"/>
<stop offset="0.7183" stop-color="#1C53E7"/>
<stop offset="1" stop-color="#1D4FE6"/>
</linearGradient>
<linearGradient id="paint1_linear_1624_348" x1="40.1369" y1="47.0994" x2="43.8068" y2="47.0883" gradientUnits="userSpaceOnUse">
<stop stop-color="white"/>
<stop offset="1" stop-color="#D1D3D4"/>
</linearGradient>
<linearGradient id="paint2_linear_1624_348" x1="0.620938" y1="13.1939" x2="43.689" y2="13.0607" gradientUnits="userSpaceOnUse">
<stop stop-color="white"/>
<stop offset="1" stop-color="#D1D3D4"/>
</linearGradient>
</defs>
</svg>
