<svg width="70" height="70" viewBox="0 0 70 70" fill="none" xmlns="http://www.w3.org/2000/svg">
<g id="direction-globe-location_svgrepo.com">
<g id="Layer_17">
<path id="Vector" d="M35 2.1875C26.5563 2.1875 19.6875 8.94687 19.6875 17.2594C19.6875 25.0906 32.0688 37.3844 33.4688 38.7625C33.9062 39.1781 34.4531 39.375 35 39.375C35.5469 39.375 36.0938 39.1781 36.5313 38.7625C37.9313 37.3844 50.3125 25.0906 50.3125 17.2594C50.3125 8.94687 43.4438 2.1875 35 2.1875Z" fill="#1A9E75"/>
<g id="Group">
<g id="Group_2">
<path id="Vector_2" d="M23.0544 37.4245C22.9669 37.3827 22.8575 37.3549 22.77 37.3271C22.8356 37.3271 22.9013 37.3549 22.945 37.3689C22.9888 37.3827 23.0325 37.3965 23.0544 37.4245Z" fill="#1A9E75"/>
</g>
<path id="Vector_3" d="M49.2391 37.3965C49.1297 37.3547 48.9984 37.3129 48.8672 37.2852C48.9328 37.2852 48.9984 37.3129 49.0641 37.3269C49.1297 37.3409 49.1953 37.3687 49.2391 37.3965Z" fill="#1A9E75"/>
<path id="Vector_4" d="M49.239 37.3964L49.0598 37.8632C49.1831 37.9105 49.2402 37.9342 49.2765 37.9574L49.3117 37.9799L49.3503 37.9962L62.2346 43.4529L62.2346 43.4529L62.2411 43.4555C62.7024 43.6434 62.8719 43.897 62.8986 44.061L62.8999 44.0692L62.9015 44.0774L67.2328 66.0716L67.2447 66.1323L67.2712 66.1883C67.3146 66.2804 67.3328 66.3602 67.333 66.4209C67.3327 66.5721 67.2337 66.7833 66.9219 66.9817C66.6166 67.176 66.1658 67.3125 65.6455 67.3125H65.6454H65.6454H65.6454H65.6453H65.6453H65.6453H65.6452H65.6452H65.6452H65.6451H65.6451H65.6451H65.645H65.645H65.6449H65.6449H65.6448H65.6448H65.6447H65.6447H65.6446H65.6446H65.6445H65.6445H65.6445H65.6444H65.6444H65.6444H65.6444H65.6443H65.6443H65.6443H65.6442H65.6442H65.6442H65.6441H65.6441H65.6441H65.644H65.644H65.6439H65.6439H65.6439H65.6438H65.6438H65.6438H65.6437H65.6437H65.6436H65.6436H65.6436H65.6435H65.6435H65.6434H65.6434H65.6433H65.6433H65.6433H65.6432H65.6432H65.6431H65.6431H65.643H65.643H65.6429H65.6429H65.6428H65.6428H65.6427H65.6427H65.6427H65.6426H65.6426H65.6425H65.6424H65.6424H65.6423H65.6423H65.6422H65.6422H65.6421H65.6421H65.642H65.642H65.6419H65.6419H65.6418H65.6418H65.6417H65.6416H65.6416H65.6415H65.6415H65.6414H65.6414H65.6413H65.6412H65.6412H65.6411H65.6411H65.641H65.6409H65.6409H65.6408H65.6408H65.6407H65.6406H65.6406H65.6405H65.6404H65.6404H65.6403H65.6403H65.6402H65.6401H65.6401H65.64H65.6399H65.6399H65.6398H65.6397H65.6397H65.6396H65.6395H65.6395H65.6394H65.6393H65.6392H65.6392H65.6391H65.639H65.639H65.6389H65.6388H65.6387H65.6387H65.6386H65.6385H65.6385H65.6384H65.6383H65.6382H65.6382H65.6381H65.638H65.6379H65.6379H65.6378H65.6377H65.6376H65.6375H65.6375H65.6374H65.6373H65.6372H65.6372H65.6371H65.637H65.6369H65.6368H65.6368H65.6367H65.6366H65.6365H65.6364H65.6363H65.6363H65.6362H65.6361H65.636H65.6359H65.6358H65.6358H65.6357H65.6356H65.6355H65.6354H65.6353H65.6353H65.6352H65.6351H65.635H65.6349H65.6348H65.6347H65.6346H65.6346H65.6345H65.6344H65.6343H65.6342H65.6341H65.634H65.6339H65.6338H65.6338H65.6337H65.6336H65.6335H65.6334H65.6333H65.6332H65.6331H65.633H65.6329H65.6328H65.6327H65.6326H65.6326H65.6325H65.6324H65.6323H65.6322H65.6321H65.632H65.6319H65.6318H65.6317H65.6316H65.6315H65.6314H65.6313H65.6312H65.6311H65.631H65.6309H65.6308H65.6307H65.6306H65.6305H65.6304H65.6303H65.6302H65.6301H65.63H65.6299H65.6298H65.6297H65.6296H65.6295H65.6294H65.6293H65.6292H65.6291H65.629H65.6289H65.6288H65.6287H65.6286H65.6285H65.6284H65.6283H65.6282H65.6281H65.628H65.6279H65.6278H65.6277H65.6275H65.6274H65.6273H65.6272H65.6271H65.627H65.6269H65.6268H65.6267H65.6266H65.6265H65.6264H65.6263H65.6262H65.626H65.6259H65.6258H65.6257H65.6256H65.6255H65.6254H65.6253H65.6252H65.6251H65.625H65.6248H65.6247H65.6246H65.6245H65.6244H65.6243H65.6242H65.6241H65.6239H65.6238H65.6237H65.6236H65.6235H65.6234H65.6233H65.6232H65.623H65.6229H65.6228H65.6227H65.6226H65.6225H65.6224H65.6222H65.6221H65.622H65.6219H65.6218H65.6217H65.6216H65.6214H65.6213H65.6212H65.6211H65.621H65.6209H65.6207H65.6206H65.6205H65.6204H65.6203H65.6202H65.62H65.6199H65.6198H65.6197H65.6196H65.6194H65.6193H65.6192H65.6191H65.619H65.6189H65.6187H65.6186H65.6185H65.6184H65.6183H65.6181H65.618H65.6179H65.6178H65.6177H65.6175H65.6174H65.6173H65.6172H65.6171H65.6169H65.6168H65.6167H65.6166H65.6165H65.6163H65.6162H65.6161H65.616H65.6158H65.6157H65.6156H65.6155H65.6154H65.6152H65.6151H65.615H65.6149H65.6147H65.6146H65.6145H65.6144H65.6142H65.6141H65.614H65.6139H65.6138H65.6136H65.6135H65.6134H65.6133H65.6131H65.613H65.6129H65.6128H65.6126H65.6125H65.6124H65.6123H65.6121H65.612H65.6119H65.6118H65.6116H65.6115H65.6114H65.6113H65.6111H65.611H65.6109H65.6108H65.6106H65.6105H65.6104H65.6103H65.6101H65.61H65.6099H65.6097H65.6096H65.6095H65.6094H65.6092H65.6091H65.609H65.6089H65.6087H65.6086H65.6085H65.6084H65.6082H65.6081H65.608H65.6078H65.6077H65.6076H65.6075H65.6073H65.6072H65.6071H65.607H65.6068H65.6067H65.6066H65.6064H65.6063H65.6062H65.6061H65.6059H65.6058H65.6057H65.6056H65.6054H65.6053H65.6052H65.605H65.6049H65.6048H65.6047H65.6045H65.6044H65.6043H65.6041H65.604H65.6039H65.6038H65.6036H65.6035H65.6034H65.6033H65.6031H65.603H65.6029H65.6027H65.6026H65.6025H65.6024H65.6022H65.6021H65.602H65.6018H65.6017C65.2793 67.3125 64.9659 67.2643 64.6777 67.1613C64.6773 67.1611 64.6769 67.161 64.6765 67.1609L50.4724 62.0017L50.2877 61.9233L49.5923 61.6282V62.1864L35.8997 67.1617L35.8878 67.166L35.8761 67.1709C35.8683 67.1742 35.8535 67.18 35.789 67.1908C35.7783 67.192 35.7674 67.1936 35.7562 67.1956C35.7244 67.2013 35.6941 67.2097 35.6656 67.2203C35.556 67.2436 35.4464 67.2668 35.3364 67.2901C35.2164 67.3024 35.094 67.3125 34.9767 67.3125C34.8501 67.3125 34.705 67.3006 34.5848 67.2788L34.563 67.2748L34.5409 67.2728C34.4194 67.2617 34.3354 67.2413 34.2799 67.2201L34.231 67.2014L34.1793 67.1932C34.1026 67.1812 34.0857 67.1746 34.0777 67.1712L34.0657 67.1661L34.0535 67.1617L20.0316 62.0667L20.0316 62.0667L20.0274 62.0652L19.8306 61.9957L19.6617 61.936L19.4933 61.9972L5.27692 67.1608C5.27651 67.1609 5.2761 67.1611 5.27569 67.1612C4.98717 67.2642 4.67363 67.3125 4.35149 67.3125C3.99541 67.3125 3.62747 67.2397 3.34878 67.1177L3.34881 67.1177L3.341 67.1144C2.73719 66.8623 2.63925 66.5255 2.67496 66.3573L2.67502 66.3573L2.67649 66.3498L7.05149 44.0772L7.05307 44.0691L7.05439 44.061C7.08103 43.8972 7.25071 43.6434 7.71193 43.4555L7.71195 43.4556L7.71836 43.4529L20.6027 37.9962L20.6412 37.9799L20.6765 37.9574C20.7128 37.9342 20.7707 37.91 20.8924 37.8635L20.9395 37.8455L20.9772 37.8215L20.9808 37.82C20.9835 37.8189 20.9863 37.8179 20.9889 37.8171L20.9933 37.8158C21.0316 37.8077 21.0637 37.7981 21.0866 37.7908L21.1041 37.7851H21.2322L21.3171 37.7307C21.3214 37.7299 21.326 37.729 21.331 37.7281C21.3707 37.7264 21.4074 37.723 21.4313 37.7208L21.4376 37.7202C21.4578 37.7184 21.4718 37.7171 21.4843 37.7162C21.4962 37.7154 21.5011 37.7153 21.5015 37.7153L21.5015 37.7153H21.5784L21.6228 37.7013L21.7022 37.7182L21.797 37.6879C21.8005 37.6878 21.8046 37.6877 21.8094 37.6877C21.8215 37.6875 21.8345 37.6875 21.8515 37.6875C22.0018 37.6875 22.1624 37.6995 22.3164 37.7322L22.3365 37.7364L22.3568 37.739C22.4403 37.7497 22.5303 37.7702 22.5918 37.7937L22.6052 37.7988L22.6189 37.8032C22.6652 37.8179 22.7006 37.8284 22.7289 37.8369C22.7809 37.8525 22.8095 37.861 22.8392 37.8752L22.8699 37.8898L22.9022 37.9002L22.9242 37.9072L34.7812 42.9374L34.9765 43.0202L35.1718 42.9374L47.0288 37.9072L47.0507 37.9002L47.1965 37.8535L47.2177 37.8266H47.275L47.3612 37.7937C47.4227 37.7702 47.5127 37.7497 47.5962 37.739L47.6163 37.7365L47.636 37.7323C47.7907 37.6996 47.9516 37.6875 48.1015 37.6875C48.2506 37.6875 48.3137 37.6906 48.3503 37.6999L48.4109 37.7153L48.4731 37.7153C48.4731 37.7153 48.4759 37.7153 48.4827 37.7159C48.4914 37.7166 48.5012 37.7176 48.5188 37.7195L48.524 37.72C48.5456 37.7223 48.5809 37.7261 48.6216 37.7281C48.627 37.729 48.6319 37.7299 48.6363 37.7308C48.6364 37.7308 48.6364 37.7308 48.6365 37.7308L48.6753 37.7555L48.7636 37.7742C48.8639 37.7955 48.9698 37.8288 49.0606 37.8635L49.239 37.3964ZM49.239 37.3964L49.2452 37.3988C49.3525 37.44 49.4594 37.481 49.5452 37.5358L48.6702 37.2293C48.7577 37.2433 48.8234 37.2573 48.8671 37.2851C48.9984 37.3128 49.1296 37.3546 49.239 37.3964Z" fill="#1A9E75" stroke="#1A9E75"/>
<g id="Group_3">
<path id="Vector_5" d="M67.8328 66.4204C67.8328 67.186 66.8484 67.8125 65.6453 67.8125C65.6453 67.8125 65.6234 67.8125 65.6016 67.8125C65.2297 67.8125 64.8578 67.7567 64.5078 67.6316L50.2891 62.4671L50.0922 62.3836L48.1016 37.1875C48.2328 37.1875 48.3641 37.1875 48.4734 37.2153C48.5391 37.2153 48.6047 37.2293 48.6703 37.2293C48.7578 37.2433 48.8234 37.2571 48.8672 37.2851C48.9984 37.3128 49.1297 37.3546 49.2391 37.3964C49.3484 37.4382 49.4578 37.48 49.5453 37.5358L62.4297 42.9925C62.9766 43.2152 63.3266 43.5772 63.3922 43.9808L67.7234 65.975C67.7891 66.1141 67.8328 66.2673 67.8328 66.4204Z" fill="#1A9E75"/>
<path id="Vector_6" d="M47.1828 37.3262C47.0953 37.354 46.9859 37.382 46.8984 37.4235C46.9203 37.3957 46.9641 37.3817 47.0078 37.368C47.0516 37.3542 47.1172 37.3262 47.1828 37.3262Z" fill="#1A9E75"/>
</g>
<path id="Vector_7" d="M34.9767 42.4773V67.8125C34.8236 67.8125 34.6486 67.7985 34.4954 67.7707C34.3423 67.7567 34.2111 67.7289 34.1015 67.6872C34.014 67.6732 33.9486 67.6594 33.8827 67.6316L19.8608 62.5367V62.3836L21.8517 37.1875C22.0267 37.1875 22.2236 37.2015 22.4204 37.2431C22.5298 37.2571 22.6611 37.2848 22.7704 37.3266C22.8579 37.3544 22.9673 37.3824 23.0548 37.424L23.0986 37.438L34.9767 42.4773Z" fill="#1A9E75"/>
</g>
<path id="Vector_8" d="M39.375 17.2598C39.375 19.6879 37.4062 21.6348 35 21.6348C32.5938 21.6348 30.625 19.6879 30.625 17.2598C30.625 14.8535 32.5938 12.8848 35 12.8848C37.4062 12.8848 39.375 14.8535 39.375 17.2598Z" fill="white"/>
</g>
</g>
</svg>
