<svg width="72" height="72" viewBox="0 0 72 72" fill="none" xmlns="http://www.w3.org/2000/svg">
<path d="M36 29.25C38.4853 29.25 40.5 27.2353 40.5 24.75C40.5 22.2647 38.4853 20.25 36 20.25C33.5147 20.25 31.5 22.2647 31.5 24.75C31.5 27.2353 33.5147 29.25 36 29.25Z" stroke="#1A9E75" stroke-width="3" stroke-miterlimit="10" stroke-linecap="round" stroke-linejoin="round"/>
<path d="M43.2 47.25H56.25L65.25 65.25H6.75L15.75 47.25H28.8" stroke="#1A9E75" stroke-width="3" stroke-miterlimit="10" stroke-linecap="round" stroke-linejoin="round"/>
<path d="M54 24.525C54 40.275 36 54 36 54C36 54 18 40.275 18 24.525C18 14.625 26.1 6.75 36 6.75C45.9 6.75 54 14.625 54 24.525Z" stroke="#020202" stroke-width="3" stroke-miterlimit="10" stroke-linecap="round" stroke-linejoin="round"/>
</svg>
