<svg width="40" height="40" viewBox="0 0 40 40" fill="none" xmlns="http://www.w3.org/2000/svg">
<g id="expand_circle_down">
<mask id="mask0_5252_3350" style="mask-type:alpha" maskUnits="userSpaceOnUse" x="0" y="0" width="40" height="40">
<rect id="Bounding box" y="40" width="40" height="40" transform="rotate(-90 0 40)" fill="#1A9E75"/>
</mask>
<g mask="url(#mask0_5252_3350)">
<path id="expand_circle_down_2" d="M25.3752 20.0003L18.1668 12.792L16.4168 14.5837L21.8335 20.0003L16.4168 25.417L18.1668 27.2087L25.3752 20.0003ZM36.6668 20.0003C36.6668 22.2781 36.2293 24.4309 35.3543 26.4587C34.4793 28.4864 33.2849 30.2573 31.771 31.7712C30.2571 33.285 28.4863 34.4795 26.4585 35.3545C24.4307 36.2295 22.2779 36.667 20.0002 36.667C17.6946 36.667 15.5279 36.2295 13.5002 35.3545C11.4724 34.4795 9.7085 33.285 8.2085 31.7712C6.7085 30.2573 5.521 28.4864 4.646 26.4587C3.771 24.4309 3.3335 22.2781 3.3335 20.0003C3.3335 17.6948 3.771 15.5281 4.646 13.5003C5.521 11.4725 6.7085 9.70866 8.2085 8.20866C9.7085 6.70866 11.4724 5.52116 13.5002 4.64616C15.5279 3.77116 17.6946 3.33366 20.0002 3.33366C22.2779 3.33366 24.4307 3.77116 26.4585 4.64616C28.4863 5.52116 30.2571 6.70866 31.771 8.20866C33.2849 9.70866 34.4793 11.4725 35.3543 13.5003C36.2293 15.5281 36.6668 17.6948 36.6668 20.0003Z" fill="#1A9E75"/>
</g>
</g>
</svg>
