<svg width="70" height="70" viewBox="0 0 70 70" fill="none" xmlns="http://www.w3.org/2000/svg">
<g id="notification_svgrepo.com" clip-path="url(#clip0_1309_553)">
<g id="&#233;&#161;&#181;&#233;&#157;&#162;-1">
<g id="Media">
<g id="notification_fill">
<path id="&#229;&#189;&#162;&#231;&#138;&#182;" d="M43.7502 55.4163C43.7502 58.4916 41.3706 61.011 38.3522 61.2337L37.9168 61.2497H32.0835C29.0083 61.2497 26.4888 58.8701 26.2662 55.8517L26.2502 55.4163H43.7502ZM35.0007 5.83301C46.0417 5.83301 55.0356 14.597 55.4056 25.5478L55.4174 26.2497V37.2277L60.7316 47.8566C61.7474 49.8883 60.3889 52.2615 58.197 52.4829L57.8622 52.4997H12.1392C9.86779 52.4997 8.35262 50.2232 9.13486 48.1636L9.26962 47.8566L14.584 37.2277V26.2497C14.584 14.9739 23.7248 5.83301 35.0007 5.83301Z" fill="#1A9E75"/>
</g>
</g>
</g>
</g>
<defs>
<clipPath id="clip0_1309_553">
<rect width="70" height="70" fill="white"/>
</clipPath>
</defs>
</svg>
