<svg width="70" height="70" viewBox="0 0 70 70" fill="none" xmlns="http://www.w3.org/2000/svg">
<path d="M34.8906 1.58594L1.94141 18.1836V68.25H4.56641V19.7695L34.8906 4.5664L65.2422 19.8242V68.25H67.8125V18.1836L34.8906 1.58594ZM55.043 41.1523L50.9961 30.707C50.2578 28.7383 48.5898 27.0156 45.4453 27.0156H39.7305H29.9688H24.1992C21.1094 27.0156 19.4688 28.7109 18.6484 30.707L14.6016 41.1523C13.0156 41.3711 10.1719 43.2305 10.1719 46.7852V60.0742H14.1094V64.3398C14.1094 69.5625 21.5195 69.5351 21.5195 64.3398V60.0742H34.8633H48.207V64.3398C48.207 69.5351 55.6172 69.5625 55.6172 64.3398V60.0742H59.5547V46.7852C59.4727 43.2305 56.6562 41.3164 55.043 41.1523ZM17.9102 52.0625C16.0508 52.0625 14.4922 50.4766 14.4922 48.5352C14.4922 46.6211 16.0234 45.0078 17.9102 45.0078C19.7695 45.0078 21.3281 46.5938 21.3281 48.5352C21.3281 50.4766 19.8242 52.0625 17.9102 52.0625ZM34.8086 41.043H18.8125L21.8477 32.8125C22.2031 31.6367 22.8047 30.8438 24.1445 30.7891H34.8086H45.4727C46.8125 30.7891 47.3867 31.6367 47.7695 32.8125L50.8047 41.043H34.8086ZM51.7617 52.0625C49.9023 52.0625 48.3438 50.4766 48.3438 48.5352C48.3438 46.6211 49.875 45.0078 51.7617 45.0078C53.6484 45.0078 55.1797 46.5938 55.1797 48.5352C55.1797 50.4766 53.6211 52.0625 51.7617 52.0625Z" fill="#1A9E75"/>
</svg>
