<svg width="40" height="40" viewBox="0 0 40 40" fill="none" xmlns="http://www.w3.org/2000/svg">
<g id="google-play-store-logo_svgrepo.com" clip-path="url(#clip0_1309_458)">
<path id="Vector" d="M24.9432 12.1911L3.80802 0.111462C3.54244 -0.0427465 3.20832 -0.0341794 2.95131 0.120029C2.68573 0.274238 2.52295 0.548387 2.52295 0.856804C2.52295 0.856804 2.53152 1.97053 2.54008 3.8039L17.9352 19.1991L24.9432 12.1911Z" fill="url(#paint0_linear_1309_458)"/>
<path id="Vector_2" d="M2.54004 3.80371C2.56574 10.4175 2.64284 26.4724 2.67711 34.4655L17.9438 19.1989L2.54004 3.80371Z" fill="url(#paint1_linear_1309_458)"/>
<path id="Vector_3" d="M37.0401 19.1046L24.9433 12.1909L17.9268 19.1988L25.8428 27.1149L37.0486 20.5867C37.3142 20.4325 37.477 20.1498 37.477 19.8499C37.477 19.5415 37.3056 19.2588 37.0401 19.1046Z" fill="url(#paint2_linear_1309_458)"/>
<path id="Vector_4" d="M2.66846 34.4656C2.68559 37.3185 2.69416 39.1433 2.69416 39.1433C2.69416 39.4517 2.85693 39.7344 3.12252 39.88C3.3881 40.0343 3.71365 40.0343 3.97923 39.88L25.8512 27.1236L17.9351 19.2075L2.66846 34.4656Z" fill="url(#paint3_linear_1309_458)"/>
</g>
<defs>
<linearGradient id="paint0_linear_1309_458" x1="2.52295" y1="9.60335" x2="24.9471" y2="9.60335" gradientUnits="userSpaceOnUse">
<stop stop-color="#63BE6B"/>
<stop offset="0.506" stop-color="#5BBC6A"/>
<stop offset="1" stop-color="#4AB96A"/>
</linearGradient>
<linearGradient id="paint1_linear_1309_458" x1="2.53593" y1="19.1383" x2="17.9349" y2="19.1383" gradientUnits="userSpaceOnUse">
<stop stop-color="#3EC6F2"/>
<stop offset="1" stop-color="#45AFE3"/>
</linearGradient>
<linearGradient id="paint2_linear_1309_458" x1="17.935" y1="19.6584" x2="37.4749" y2="19.6584" gradientUnits="userSpaceOnUse">
<stop stop-color="#FAA51A"/>
<stop offset="0.387" stop-color="#FAB716"/>
<stop offset="0.741" stop-color="#FAC412"/>
<stop offset="1" stop-color="#FAC80F"/>
</linearGradient>
<linearGradient id="paint3_linear_1309_458" x1="2.67223" y1="29.6013" x2="25.8508" y2="29.6013" gradientUnits="userSpaceOnUse">
<stop stop-color="#EC3B50"/>
<stop offset="1" stop-color="#E7515B"/>
</linearGradient>
<clipPath id="clip0_1309_458">
<rect width="40" height="40" fill="white"/>
</clipPath>
</defs>
</svg>
