<svg width="40" height="40" viewBox="0 0 40 40" fill="none" xmlns="http://www.w3.org/2000/svg">
<g id="expand_circle_down">
<mask id="mask0_5252_3347" style="mask-type:alpha" maskUnits="userSpaceOnUse" x="0" y="0" width="40" height="40">
<rect id="Bounding box" x="40" width="40" height="40" transform="rotate(90 40 0)" fill="#1A9E75"/>
</mask>
<g mask="url(#mask0_5252_3347)">
<path id="expand_circle_down_2" d="M14.6253 19.9997L21.8337 27.208L23.5837 25.4163L18.167 19.9997L23.5837 14.583L21.8337 12.7913L14.6253 19.9997ZM3.33366 19.9997C3.33366 17.7219 3.77116 15.5691 4.64616 13.5413C5.52116 11.5136 6.7156 9.74273 8.22949 8.22884C9.74338 6.71495 11.5142 5.52051 13.542 4.64551C15.5698 3.77051 17.7225 3.33301 20.0003 3.33301C22.3059 3.33301 24.4725 3.77051 26.5003 4.64551C28.5281 5.52051 30.292 6.71495 31.792 8.22884C33.292 9.74273 34.4795 11.5136 35.3545 13.5413C36.2295 15.5691 36.667 17.7219 36.667 19.9997C36.667 22.3052 36.2295 24.4719 35.3545 26.4997C34.4795 28.5275 33.292 30.2913 31.792 31.7913C30.292 33.2913 28.5281 34.4788 26.5003 35.3538C24.4725 36.2288 22.3059 36.6663 20.0003 36.6663C17.7225 36.6663 15.5698 36.2288 13.542 35.3538C11.5142 34.4788 9.74338 33.2913 8.22949 31.7913C6.7156 30.2913 5.52116 28.5275 4.64616 26.4997C3.77116 24.4719 3.33366 22.3052 3.33366 19.9997Z" fill="#1A9E75"/>
</g>
</g>
</svg>
