<svg width="63" height="63" viewBox="0 0 63 63" fill="none" xmlns="http://www.w3.org/2000/svg">
<g id="Color Change Website" clip-path="url(#clip0_0_1)">
<rect width="1440" height="4848" transform="translate(-1169 -746)" fill="white"/>
<g id="Rectangle 375" filter="url(#filter0_dd_0_1)">
<rect x="-49" y="-30" width="160" height="156" rx="20" fill="white"/>
</g>
<g id="Group 5">
<line id="Line 2" x1="5.16037e-08" y1="61.5" x2="60" y2="61.5" stroke="#020202" stroke-width="3"/>
<g id="Group 3">
<rect id="Rectangle 15" x="3" y="36.335" width="58.5" height="3.67059" stroke="#020202" stroke-width="3"/>
<line id="Line 3" x1="12" y1="34.835" x2="12" y2="40.7644" stroke="#020202" stroke-width="3"/>
<line id="Line 4" x1="22.5" y1="34.835" x2="22.5" y2="41.5056" stroke="#020202" stroke-width="3"/>
<line id="Line 5" x1="33" y1="34.835" x2="33" y2="41.5056" stroke="#020202" stroke-width="3"/>
<line id="Line 7" x1="54" y1="34.835" x2="54" y2="41.5056" stroke="#020202" stroke-width="3"/>
</g>
<path id="Rectangle 14" d="M35.25 34.584C35.25 29.8205 39.1115 25.959 43.875 25.959C48.6385 25.959 52.5 29.8205 52.5 34.584V60.759H35.25V34.584Z" fill="white" stroke="#020202" stroke-width="3"/>
<rect id="Rectangle 16" x="35.25" y="5.94727" width="16.5" height="8.11765" rx="4.05882" stroke="#020202" stroke-width="3"/>
<line id="Line 8" x1="44.25" y1="15.5645" x2="44.25" y2="25.1997" stroke="#020202" stroke-width="3"/>
<line id="Line 9" x1="44.25" y1="-2.54983e-08" x2="44.25" y2="4.44706" stroke="#020202" stroke-width="3"/>
<rect id="Rectangle 17" x="38.25" y="8.89453" width="3.75" height="3.70588" fill="#1A9E75"/>
<rect id="Rectangle 18" x="45" y="8.89453" width="3.75" height="3.70588" fill="#1A9E75"/>
</g>
</g>
<defs>
<filter id="filter0_dd_0_1" x="-60" y="-41" width="182" height="178" filterUnits="userSpaceOnUse" color-interpolation-filters="sRGB">
<feFlood flood-opacity="0" result="BackgroundImageFix"/>
<feColorMatrix in="SourceAlpha" type="matrix" values="0 0 0 0 0 0 0 0 0 0 0 0 0 0 0 0 0 0 127 0" result="hardAlpha"/>
<feOffset dx="1" dy="1"/>
<feGaussianBlur stdDeviation="5"/>
<feComposite in2="hardAlpha" operator="out"/>
<feColorMatrix type="matrix" values="0 0 0 0 0.6 0 0 0 0 0.6 0 0 0 0 0.6 0 0 0 0.1 0"/>
<feBlend mode="normal" in2="BackgroundImageFix" result="effect1_dropShadow_0_1"/>
<feColorMatrix in="SourceAlpha" type="matrix" values="0 0 0 0 0 0 0 0 0 0 0 0 0 0 0 0 0 0 127 0" result="hardAlpha"/>
<feOffset dx="-1" dy="-1"/>
<feGaussianBlur stdDeviation="5"/>
<feComposite in2="hardAlpha" operator="out"/>
<feColorMatrix type="matrix" values="0 0 0 0 0.600833 0 0 0 0 0.600833 0 0 0 0 0.600833 0 0 0 0.1 0"/>
<feBlend mode="normal" in2="effect1_dropShadow_0_1" result="effect2_dropShadow_0_1"/>
<feBlend mode="normal" in="SourceGraphic" in2="effect2_dropShadow_0_1" result="shape"/>
</filter>
<clipPath id="clip0_0_1">
<rect width="1440" height="4848" fill="white" transform="translate(-1169 -746)"/>
</clipPath>
</defs>
</svg>
